<?xml version="1.0" encoding="UTF-8"?>
<svg version="1.1" xmlns="http://www.w3.org/2000/svg" width="512" height="512">
<path d="M0 0 C4.29144382 4.52733714 6.81938454 10.11833461 9.625 15.625 C10.68713112 17.68638802 11.7496374 19.74758278 12.8125 21.80859375 C13.60914063 23.35909424 13.60914063 23.35909424 14.421875 24.94091797 C16.79371403 29.53855767 19.20793053 34.11352235 21.625 38.6875 C22.43010447 40.21201945 23.23482415 41.73674221 24.0390625 43.26171875 C24.37115723 43.89037842 24.70325195 44.51903809 25.04541016 45.16674805 C26.05205872 47.09997671 27.02524727 49.05049455 28 51 C45.82 51 63.64 51 82 51 C85.63 43.74 89.26 36.48 93 29 C107.96353436 -0.04686082 107.96353436 -0.04686082 114.79296875 -2.6953125 C152.27801083 -7.87023866 196.93499217 15.93526376 228 34 C229.09368896 34.63083496 229.09368896 34.63083496 230.20947266 35.27441406 C237.52979575 39.54619303 243.71447981 43.53026648 248 51 C248.64710938 52.0725 249.29421875 53.145 249.9609375 54.25 C261.15082526 73.18538429 269.71969776 93.28677769 277 114 C277.4633374 115.30155029 277.4633374 115.30155029 277.93603516 116.62939453 C294.23645895 162.67031907 303.03490287 211.13054017 308.875 259.5 C308.98468109 260.38262512 309.09436218 261.26525024 309.20736694 262.17462158 C310.38321894 271.74054515 311.22150699 281.26516938 311.3828125 290.90625 C311.40834198 291.73080688 311.43387146 292.55536377 311.46017456 293.40490723 C311.47732319 301.23482759 307.68273324 305.5557355 302.38305664 310.94604492 C301.80289795 311.5207251 301.22273926 312.09540527 300.625 312.6875 C300.01068115 313.29762939 299.3963623 313.90775879 298.76342773 314.53637695 C293.11505878 320.04942115 287.11971134 324.95615543 280.79296875 329.66455078 C278.95592428 331.03282873 277.13411069 332.41985529 275.3125 333.80859375 C266.8846819 340.1748599 258.17899947 345.78443793 249 351 C248.42378906 351.33596191 247.84757812 351.67192383 247.25390625 352.01806641 C220.46557296 367.59144271 180.36261857 382.21538518 148.80078125 376.609375 C143.48169023 374.74470489 140.34592067 370.26735585 137 366 C136.16695491 364.95159382 135.33360086 363.90343309 134.5 362.85546875 C132.13110877 359.86442287 129.78313122 356.85750168 127.43945312 353.84667969 C125.13531928 350.89069794 122.81735109 347.94562362 120.5 345 C117.64949038 341.37632299 114.80313363 337.74959247 111.96875 334.11328125 C111.22334961 333.15905273 111.22334961 333.15905273 110.46289062 332.18554688 C109.51202399 330.96808212 108.56271659 329.74939738 107.61523438 328.52929688 C106.42531471 327.00755553 105.21373394 325.50281584 104 324 C103.55760986 323.44296387 103.11521973 322.88592773 102.65942383 322.31201172 C100.33853262 320.47701549 99.0442847 320.81336423 96.13671875 321.14453125 C94.61800171 321.29486816 94.61800171 321.29486816 93.06860352 321.44824219 C91.95283936 321.56844727 90.8370752 321.68865234 89.6875 321.8125 C78.12724707 322.85386442 66.66629931 323.2375203 55.0625 323.25 C54.25462036 323.25505554 53.44674072 323.26011108 52.61437988 323.26531982 C44.25643544 323.3114214 36.08293943 323.17189333 27.8046875 321.94921875 C16.51098272 319.73686944 16.51098272 319.73686944 5.77441406 322.31591797 C1.65537681 326.1159338 -0.96502863 330.73048612 -3.61669922 335.61621094 C-5.82798844 339.42684066 -8.64592126 342.66000426 -11.5 346 C-16.70338329 352.29555833 -21.67571258 358.74806972 -26.51171875 365.33007812 C-29.95270456 369.92840582 -33.50201882 374.59394874 -38.9921875 376.80078125 C-72.04023041 380.07986722 -106.30905089 368.4534436 -135 353 C-135.66338379 352.64824707 -136.32676758 352.29649414 -137.01025391 351.93408203 C-146.9016134 346.6676846 -156.07352276 340.76806716 -165 334 C-165.58523437 333.55897949 -166.17046875 333.11795898 -166.7734375 332.66357422 C-175.28143386 326.21988156 -183.27829498 319.36463195 -191 312 C-191.80953125 311.23171875 -192.6190625 310.4634375 -193.453125 309.671875 C-200.6457079 302.68627291 -200.6457079 302.68627291 -201.25978088 298.03031921 C-201.26243454 297.34186417 -201.2650882 296.65340912 -201.26782227 295.9440918 C-201.27224838 295.15895706 -201.2766745 294.37382233 -201.28123474 293.56489563 C-201.27221634 292.72234726 -201.26319794 291.87979889 -201.25390625 291.01171875 C-201.24807022 290.12586594 -201.24223419 289.24001312 -201.23622131 288.32731628 C-201.09609451 278.74754143 -200.11090115 269.31283319 -198.9375 259.8125 C-198.82773834 258.89846405 -198.71797668 257.9844281 -198.60488892 257.04269409 C-193.50715089 214.76536245 -185.6320775 172.7053489 -173 132 C-172.65356445 130.87835449 -172.30712891 129.75670898 -171.95019531 128.60107422 C-147.69998798 50.95825577 -147.69998798 50.95825577 -116 33.125 C-114.61687622 32.34237793 -114.61687622 32.34237793 -113.20581055 31.54394531 C-105.26327115 27.08396216 -97.23104961 22.89881063 -89 19 C-88.3409668 18.68111816 -87.68193359 18.36223633 -87.00292969 18.03369141 C-66.42309254 8.12761484 -22.6009667 -12.85153008 0 0 Z M-112 68 C-113.75982613 70.53594901 -113.75982613 70.53594901 -115.19921875 73.41796875 C-116.04577026 75.03251953 -116.04577026 75.03251953 -116.90942383 76.6796875 C-117.49618896 77.83726562 -118.0829541 78.99484375 -118.6875 80.1875 C-118.99336029 80.78546387 -119.29922058 81.38342773 -119.61434937 81.99951172 C-150.77250331 143.05827476 -164.41664956 215.04015641 -170 283 C-170.12117188 284.134375 -170.24234375 285.26875 -170.3671875 286.4375 C-169.2063693 294.53852915 -154.61921797 302.77975159 -148.4375 307.5 C-123.2854959 326.28530691 -94.18334888 340.30719504 -63 345 C-61.91074219 345.28101563 -60.82148438 345.56203125 -59.69921875 345.8515625 C-56.39461644 346.54859425 -54.28115198 346.83084964 -51 346 C-47.40318678 342.71975001 -44.9221417 339.00724765 -42.30029297 334.93310547 C-39.66068094 331.00887564 -36.56790891 327.41890518 -33.57788086 323.75952148 C-31.06777918 320.610703 -29.39965185 317.7567928 -28 314 C-28.73822998 313.82460693 -29.47645996 313.64921387 -30.23706055 313.46850586 C-107.39439244 295.0060081 -107.39439244 295.0060081 -129.625 271.1875 C-131.55837271 266.70559055 -131.78152629 262.8063867 -131 258 C-129.01308515 254.09713154 -126.88047771 251.10654505 -123 249 C-116.88351255 247.32096423 -112.57415101 248.3673106 -107 251 C-104.68691201 252.34883685 -102.4015429 253.7174761 -100.125 255.125 C-54.6405173 283.17816618 1.66526366 292.25890449 54.375 292.1875 C55.20559937 292.18689575 56.03619873 292.1862915 56.89196777 292.18566895 C112.05485043 292.07733546 169.26996649 281.36578922 216.5 251.5625 C221.68390521 248.41788312 225.57876954 247.62429182 231.625 248.5625 C236.31737471 250.56110404 238.69642055 253.39284111 241 258 C241.5197324 262.73723303 241.52599673 266.78064394 239.625 271.1875 C233.20249128 278.06875934 224.59751946 282.5855108 216.3125 286.875 C215.32064697 287.38893311 214.32879395 287.90286621 213.30688477 288.43237305 C189.52852346 300.50250251 163.95694819 308.24063624 138 314 C139.80682707 319.92364824 143.99202116 324.11755075 147.92724609 328.74365234 C150.58004825 331.89968435 153.0758944 334.88566988 154.96875 338.5625 C156.7378815 341.83372428 157.95351292 343.84898113 161 346 C167.33165655 347.12789312 173.83738679 345.40283316 180 344 C180.8156543 343.82275391 181.63130859 343.64550781 182.47167969 343.46289062 C199.65595336 339.63186945 215.50335929 333.26936568 231 325 C231.60054199 324.68305176 232.20108398 324.36610352 232.81982422 324.03955078 C245.69641585 317.18742795 257.40576056 308.56094817 268.4765625 299.0859375 C271 297 271 297 273.7109375 295.2265625 C276.45319175 293.29432797 278.13172761 291.79332892 280 289 C280.31606032 285.60735434 280.31606032 285.60735434 279.8671875 281.8515625 C279.8066922 281.15144547 279.7461969 280.45132843 279.68386841 279.72999573 C279.48069205 277.48344702 279.24441446 275.24241189 279 273 C278.92539551 272.28268707 278.85079102 271.56537415 278.77392578 270.82632446 C278.21542256 265.5201685 277.56148322 260.22846829 276.875 254.9375 C276.76806824 254.10695099 276.66113647 253.27640198 276.55096436 252.42068481 C269.27618522 196.40833512 257.33871314 139.53951654 232.75 88.375 C232.45758423 87.76457855 232.16516846 87.1541571 231.8638916 86.52523804 C224.78819673 71.31888282 224.78819673 71.31888282 212.1875 61 C211.44177734 60.58685547 210.69605469 60.17371094 209.92773438 59.74804688 C208.37953313 58.89516898 206.82592282 58.0520372 205.26708984 57.21875 C203.15467171 56.08314895 201.07010534 54.90924956 198.98828125 53.71875 C183.63450866 45.08225292 167.01995488 38.62249642 150.1875 33.5 C149.43106201 33.26901611 148.67462402 33.03803223 147.89526367 32.80004883 C141.68411777 31.00471925 135.386246 29.96989122 129 29 C127.00985977 32.55647501 125.0348577 36.12113698 123.0625 39.6875 C122.49853516 40.69490234 121.93457031 41.70230469 121.35351562 42.74023438 C120.81533203 43.71669922 120.27714844 44.69316406 119.72265625 45.69921875 C118.97640991 47.04246216 118.97640991 47.04246216 118.21508789 48.4128418 C117.01419427 50.96977763 116.42317585 53.21756398 116 56 C116.82387207 56.15033691 117.64774414 56.30067383 118.49658203 56.45556641 C146.91120613 61.68328824 174.35914358 68.48147129 201.125 79.625 C201.75776855 79.87757568 202.39053711 80.13015137 203.04248047 80.39038086 C207.75158889 82.4397031 210.07250639 84.91437706 213 89 C214.45667817 93.3700345 214.86982886 97.61269796 213.28125 101.97265625 C211.18654814 105.95090051 209.22617924 108.47138198 205 110 C196.52198312 110.97473321 190.35454604 108.98455065 182.75 105.4375 C143.14426854 88.03717088 99.14518883 81.78033066 56.125 81.75 C54.82024719 81.74898788 54.82024719 81.74898788 53.48913574 81.74795532 C8.88127053 81.80235516 -38.84549103 87.99552982 -79.25 108 C-84.83970497 110.64256886 -90.14449004 111.29969168 -96.07421875 109.30078125 C-99.15119558 107.77196886 -100.96972144 106.04297601 -102.9375 103.25 C-104.65614528 97.99296738 -104.71555504 93.95836117 -102.8125 88.75 C-98.42856931 82.09851895 -91.70120206 79.97496748 -84.5625 77.1875 C-83.44866943 76.74954102 -82.33483887 76.31158203 -81.18725586 75.86035156 C-56.83516548 66.41632759 -31.7870699 60.09432586 -6 56 C-6.59657109 52.07746783 -7.80022687 49.15959164 -9.72265625 45.69921875 C-10.26083984 44.72275391 -10.79902344 43.74628906 -11.35351562 42.74023438 C-11.91748047 41.73283203 -12.48144531 40.72542969 -13.0625 39.6875 C-13.63033203 38.66076172 -14.19816406 37.63402344 -14.78320312 36.57617188 C-16.18284995 34.0473982 -17.58860511 31.52222964 -19 29 C-47.62393532 29 -91.15961309 49.39116846 -112 68 Z " fill="#FFFFFF" transform="translate(201,69)"/>
<path d="M0 0 C13.15215906 9.51474081 21.73564399 23.40163764 24.7890625 39.40234375 C26.89987482 57.46841388 24.31363395 74.86468152 12.9765625 89.70703125 C10.79941913 92.18511082 8.55726254 94.51904466 6.1875 96.8125 C5.60097656 97.39644531 5.01445312 97.98039062 4.41015625 98.58203125 C-5.6330311 107.91628773 -19.19970508 111.47822271 -32.65625 111.09375 C-46.06917552 109.89853882 -58.67984063 103.68421851 -67.8125 93.8125 C-73.07992032 87.41710684 -76.82023844 80.51784753 -79.8125 72.8125 C-80.13347656 72.01972656 -80.45445312 71.22695313 -80.78515625 70.41015625 C-86.10392772 54.75070351 -83.48127616 36.50939519 -76.8125 21.8125 C-69.78035366 8.44255791 -59.07664158 -1.43001955 -44.75 -6.625 C-29.35016234 -10.85491974 -13.29749679 -8.99919982 0 0 Z M-46.4921875 31.78515625 C-52.27686624 40.66754757 -53.29436458 50.08400627 -51.3046875 60.4609375 C-48.92853375 68.46338633 -44.8436956 73.6579843 -37.6796875 77.8671875 C-32.86808497 80.30318711 -27.90167257 80.73455341 -22.7578125 79.19921875 C-15.23728072 75.8778944 -10.4662234 70.07905375 -7.375 62.5625 C-4.57808977 53.80853423 -4.69946111 45.5172559 -8.5546875 37.1328125 C-11.82353002 31.1027117 -15.13215292 26.20638883 -21.609375 23.4375 C-31.53216974 20.62252277 -40.24614546 23.71308552 -46.4921875 31.78515625 Z " fill="#FFFFFF" transform="translate(355.8125,211.1875)"/>
<path d="M0 0 C12.68249167 9.68553354 21.22240993 23.99046328 23.49609375 39.90625 C24.7838137 59.68454024 21.83341558 77.08115969 8.68359375 92.78125 C-0.55416093 102.44372903 -12.92220552 109.16766149 -26.4140625 110.109375 C-42.17337148 110.34371417 -54.80544861 106.06090307 -66.2578125 95.14453125 C-67.36962891 94.03658203 -67.36962891 94.03658203 -68.50390625 92.90625 C-69.35275391 92.09220703 -69.35275391 92.09220703 -70.21875 91.26171875 C-81.02296281 79.94165493 -85.0471258 63.64570999 -84.92382812 48.42358398 C-84.3527967 32.09977225 -78.41228018 17.05899952 -67.0078125 5.19140625 C-47.99946836 -12.15630252 -21.39549778 -14.65700283 0 0 Z M-47.31640625 30.09375 C-53.06052196 38.14600354 -54.6090368 46.08565811 -53.50390625 55.90625 C-51.60264721 64.39401358 -47.72144999 71.21528218 -40.5546875 76.28515625 C-35.98372812 78.86249484 -31.69843978 79.90481081 -26.50390625 78.90625 C-18.69070046 76.19554595 -13.62299918 71.00813436 -9.50390625 63.90625 C-6.12568407 55.79851677 -6.11531219 45.68079381 -9.12890625 37.46875 C-12.27744171 30.76435106 -16.42095596 25.59930633 -23.30078125 22.56640625 C-32.96729212 19.66988083 -40.98988713 22.52310369 -47.31640625 30.09375 Z " fill="#FFFFFF" transform="translate(215.50390625,212.09375)"/>
</svg>
