<?xml version="1.0" encoding="UTF-8"?>
<svg version="1.1" xmlns="http://www.w3.org/2000/svg" width="512" height="512">
<path d="M0 0 C0.97088562 0.00215515 1.94177124 0.0043103 2.94207764 0.00653076 C17.28085186 0.05758363 31.28046967 0.45300087 45.375 3.3125 C46.39045898 3.51117676 47.40591797 3.70985352 48.45214844 3.91455078 C97.35049429 13.69568529 141.5105292 36.73174639 177.375 71.3125 C178.01759766 71.92786621 178.66019531 72.54323242 179.32226562 73.17724609 C187.95215167 81.47823667 195.9643111 89.93076046 203.08056641 99.56933594 C204.40087785 101.34734871 205.7502701 103.10003671 207.10546875 104.8515625 C218.0522367 119.16537865 226.78355995 134.99616221 234.375 151.3125 C234.70064941 152.00682129 235.02629883 152.70114258 235.36181641 153.41650391 C244.84270818 173.91760339 251.06949526 195.98556867 254.375 218.3125 C254.55015137 219.43060059 254.72530273 220.54870117 254.90576172 221.70068359 C256.56424447 233.31893967 256.77374824 244.8389064 256.75 256.5625 C256.74918427 258.08002365 256.74918427 258.08002365 256.74835205 259.62820435 C256.62222707 310.78802619 241.25168524 361.4873391 211.375 403.3125 C210.69099121 404.28050537 210.69099121 404.28050537 209.99316406 405.26806641 C201.18138354 417.66322371 191.12211282 428.58289062 180.375 439.3125 C179.58222656 440.14007813 178.78945313 440.96765625 177.97265625 441.8203125 C170.95790729 449.06204101 163.4542413 455.29375111 155.375 461.3125 C154.5102002 461.96049561 154.5102002 461.96049561 153.62792969 462.62158203 C144.89467169 469.12837702 135.85414607 474.95403309 126.375 480.3125 C125.66778809 480.7146875 124.96057617 481.116875 124.23193359 481.53125 C101.09654164 494.5566741 75.92537591 503.30551461 49.9375 508.625 C49.21860596 508.77235596 48.49971191 508.91971191 47.7590332 509.0715332 C33.08339502 511.86090125 18.55831162 512.66142619 3.64770508 512.62817383 C0.70811513 512.6250221 -2.2304558 512.64854926 -5.16992188 512.67382812 C-18.54306192 512.71848737 -31.43916711 511.51301542 -44.625 509.3125 C-46.33055054 509.03031616 -46.33055054 509.03031616 -48.07055664 508.74243164 C-50.6662622 508.27617402 -53.23774939 507.7574418 -55.8125 507.1875 C-57.20142456 506.88054199 -57.20142456 506.88054199 -58.6184082 506.56738281 C-101.81787364 496.52249509 -141.64439095 475.17908436 -173.90625 444.8203125 C-175.82943486 443.04634026 -177.74453578 441.37049361 -179.765625 439.71875 C-182.0600781 437.78789876 -183.96239466 435.97256007 -185.875 433.6875 C-187.80563919 431.41195359 -189.74619329 429.18477924 -191.80078125 427.01953125 C-203.89728386 414.24990083 -214.1467281 399.70597146 -222.625 384.3125 C-223.08616211 383.48298828 -223.54732422 382.65347656 -224.02246094 381.79882812 C-238.86708173 354.89114204 -248.93431189 326.71126878 -253.625 296.3125 C-253.80305176 295.18569824 -253.98110352 294.05889648 -254.16455078 292.89794922 C-255.81990041 281.28979144 -256.02265444 269.77544538 -256 258.0625 C-255.99978851 257.05181458 -255.99957703 256.04112915 -255.99935913 254.99981689 C-255.9648632 238.44013742 -255.01549345 222.56569538 -251.625 206.3125 C-251.44308105 205.42143555 -251.26116211 204.53037109 -251.07373047 203.61230469 C-243.90300484 169.63626601 -229.66311812 137.60767931 -209.625 109.3125 C-209.16899414 108.66571289 -208.71298828 108.01892578 -208.24316406 107.35253906 C-200.80649108 96.89423917 -192.5878193 87.48193437 -183.625 78.3125 C-182.99625977 77.6632959 -182.36751953 77.0140918 -181.71972656 76.34521484 C-174.08187716 68.47363256 -166.37424285 60.9614445 -157.625 54.3125 C-157.08472168 53.89581055 -156.54444336 53.47912109 -155.98779297 53.04980469 C-124.68266904 28.98514256 -89.01575366 12.80019801 -50.4375 4.5625 C-49.51267822 4.36366211 -48.58785645 4.16482422 -47.63500977 3.95996094 C-31.76621288 0.73671955 -16.15094581 -0.06461899 0 0 Z M-126.625 70.3125 C-127.58019531 70.99570313 -128.53539062 71.67890625 -129.51953125 72.3828125 C-147.83278516 85.77572952 -164.9110994 101.30399669 -178.38232422 119.62548828 C-179.60364961 121.28351549 -180.84877916 122.92126498 -182.09765625 124.55859375 C-203.2892278 152.77905289 -216.86751963 186.57955109 -222.625 221.3125 C-222.80232666 222.36622803 -222.97965332 223.41995605 -223.16235352 224.50561523 C-224.77731581 235.1491295 -224.98241833 245.62868902 -224.9375 256.375 C-224.93567719 257.27946869 -224.93385437 258.18393738 -224.93197632 259.11581421 C-224.88589957 272.6988493 -224.46869027 285.98235809 -221.625 299.3125 C-221.35961426 300.56716064 -221.35961426 300.56716064 -221.08886719 301.84716797 C-212.60373302 340.66042848 -194.90471588 375.55811045 -168.625 405.3125 C-167.53832031 406.58287109 -167.53832031 406.58287109 -166.4296875 407.87890625 C-146.9075886 430.31851439 -122.11445352 447.57284748 -95.4375 460.4375 C-94.50599121 460.88689941 -93.57448242 461.33629883 -92.61474609 461.79931641 C-86.59798411 464.61059471 -81.16298234 466.3511053 -74.625 468.3125 C-74.625 455.4425 -74.625 442.5725 -74.625 429.3125 C-80.235 429.6425 -85.845 429.9725 -91.625 430.3125 C-107.98206305 428.90240836 -122.41208164 423.73762575 -133.625 411.3125 C-134.40230469 410.48878906 -134.40230469 410.48878906 -135.1953125 409.6484375 C-138.75684347 405.76748671 -141.71237422 401.74416616 -144.5625 397.3125 C-149.58237579 389.63732312 -155.13692345 383.10181989 -163.625 379.3125 C-166.32436448 378.75548828 -168.86408931 378.50624812 -171.625 378.3125 C-171.61339844 377.73886719 -171.60179687 377.16523438 -171.58984375 376.57421875 C-171.48955778 367.13301105 -172.0782871 357.73353476 -172.625 348.3125 C-155.25123438 348.81976323 -140.77460882 354.5107253 -128.625 367.3125 C-124.7626975 372.05473577 -121.18667625 376.98322017 -117.78125 382.0625 C-113.24131768 388.83112637 -107.81026739 395.93227984 -99.8671875 398.87890625 C-92.300635 400.34212459 -83.55202081 400.5153657 -76.32299805 397.55664062 C-72.85371739 395.01466302 -72.50605979 390.89231769 -71.75 386.875 C-71.38102843 385.16722533 -71.00874476 383.46016217 -70.6328125 381.75390625 C-70.48473145 380.99795166 -70.33665039 380.24199707 -70.18408203 379.46313477 C-69.625 377.3125 -69.625 377.3125 -68.56201172 375.22241211 C-67.40477354 373.21817585 -67.40477354 373.21817585 -67.625 370.3125 C-68.17736328 370.14234375 -68.72972656 369.9721875 -69.29882812 369.796875 C-104.66867304 358.77859688 -135.16438266 339.8152648 -152.859375 306.16796875 C-168.93372529 274.1602387 -170.4638097 237.07368869 -159.3125 203.22265625 C-155.82137375 193.17750297 -151.48228308 181.79164978 -144.3671875 173.765625 C-142.09070645 170.56017634 -142.3777374 169.11299375 -142.875 165.25 C-144.86396726 144.17937813 -146.8443082 119.75513028 -134.625 101.3125 C-132.49122765 98.94318135 -130.31546815 97.02014873 -127.625 95.3125 C-127.05652344 94.94125 -126.48804688 94.57 -125.90234375 94.1875 C-112.09900996 88.88398925 -94.45320848 95.71122998 -81.84472656 101.31152344 C-72.49317271 105.64272139 -63.20403297 110.59314469 -54.625 116.3125 C-51.8812556 116.11385787 -49.32628441 115.78133606 -46.625 115.3125 C-45.73232422 115.16425781 -44.83964844 115.01601562 -43.91992188 114.86328125 C-39.88353031 114.18466801 -35.85106564 113.48474688 -31.8203125 112.7734375 C-6.48726636 108.43248074 19.77584418 109.26374301 44.80493164 115.07910156 C54.25454151 117.19801564 59.46837571 114.42244596 67.5625 109.5625 C76.76110537 104.07962054 85.990173 99.07371035 96.3125 96.0625 C97.37339844 95.74796875 98.43429687 95.4334375 99.52734375 95.109375 C108.06720363 92.71961997 119.67427092 91.04879024 128.0625 94.875 C136.97355254 100.57647881 140.67265261 109.73576657 143.125 119.625 C145.85788498 134.31425676 145.19882284 150.15443139 143.4375 164.9375 C142.94212394 171.1367775 144.38035167 173.84736816 148.2734375 178.5625 C165.73724919 201.41477403 169.76247716 236.56858493 166.375 264.3125 C163.01948977 287.81992276 154.5312513 308.90666719 139.375 327.3125 C138.61574219 328.23675781 137.85648437 329.16101563 137.07421875 330.11328125 C119.26065422 350.72570371 94.33815218 363.22740282 68.375 370.3125 C69.22943684 375.16320915 70.81001693 379.64021368 72.4375 384.27734375 C74.14863331 389.81713785 74.51219701 395.09750302 74.58032227 400.87841797 C74.59022186 401.61081192 74.60012146 402.34320587 74.61032104 403.09779358 C74.64171427 405.50005954 74.66660498 407.90234522 74.69140625 410.3046875 C74.71199497 411.97763561 74.73299193 413.65057875 74.75437927 415.32351685 C74.80940192 419.71284945 74.85889801 424.10222745 74.90722656 428.49163818 C74.95758679 432.97623707 75.01319684 437.46077056 75.06835938 441.9453125 C75.17569845 450.7343196 75.27719661 459.52338164 75.375 468.3125 C83.06931415 466.1081996 90.1048493 463.36427559 97.3125 459.875 C98.40208008 459.3485791 99.49166016 458.8221582 100.61425781 458.27978516 C118.77317779 449.33326016 135.2081616 438.11487629 150.1015625 424.40234375 C152.22130212 422.45378585 154.37983469 420.56492667 156.5625 418.6875 C163.99470855 412.17688531 170.231738 405.04958039 176.375 397.3125 C177.17035156 396.33410156 177.96570313 395.35570312 178.78515625 394.34765625 C185.82708608 385.49781417 191.72515661 376.1009118 197.375 366.3125 C197.77605957 365.62172363 198.17711914 364.93094727 198.59033203 364.21923828 C214.93366082 335.73671858 225.27665179 301.60573512 225.61328125 268.6328125 C225.62804001 267.42986794 225.62804001 267.42986794 225.64309692 266.20262146 C226.04912354 224.45106017 218.21861025 186.34087223 198.375 149.3125 C198.05563477 148.71244141 197.73626953 148.11238281 197.40722656 147.49414062 C169.04444056 94.68464871 118.2828289 56.33443522 61.546875 38.78515625 C-0.98099328 20.54257895 -73.72310416 31.85243558 -126.625 70.3125 Z M-111.625 123.3125 C-113.89438458 129.6685851 -113.96907367 135.66684775 -113.9375 142.375 C-113.93665405 144.04574585 -113.93665405 144.04574585 -113.93579102 145.75024414 C-113.85470314 153.02536315 -113.04158621 159.39955518 -111.25 166.4453125 C-110.07684901 171.82714268 -110.20751962 176.61027988 -112.79296875 181.5390625 C-114.3250182 183.86383459 -115.95579975 186.08439899 -117.625 188.3125 C-133.56206847 211.1422594 -139.88161448 238.71522535 -135.04785156 266.22900391 C-130.10453675 290.5859604 -115.98416874 311.66198533 -95.4375 325.625 C-71.18955781 341.35782067 -43.57158766 344.94852937 -15.625 349.3125 C-19.56799322 355.5387647 -23.52794716 361.74885006 -27.625 367.875 C-28.04797363 368.51211914 -28.47094727 369.14923828 -28.90673828 369.80566406 C-31.3470851 373.46572194 -33.88076865 377.02709974 -36.5 380.5625 C-45.63011507 393.59014061 -44.77718755 408.43513206 -44.72265625 423.69921875 C-44.72078684 425.25291396 -44.71936541 426.80660977 -44.71836853 428.36030579 C-44.71458452 432.41260459 -44.70479032 436.46486647 -44.69366455 440.51715088 C-44.68336101 444.6670278 -44.67885191 448.8169108 -44.67382812 452.96679688 C-44.66316357 461.08204802 -44.64613778 469.1972694 -44.625 477.3125 C-42.2252207 477.80086227 -39.82503248 478.28703675 -37.42456055 478.77197266 C-36.41165577 478.97845177 -36.41165577 478.97845177 -35.37828827 479.18910217 C-30.46533371 480.17911868 -25.62016204 480.94129248 -20.625 481.3125 C-19.82497559 481.37211914 -19.02495117 481.43173828 -18.20068359 481.49316406 C2.15830853 482.85017173 25.74459795 483.85596735 45.375 477.3125 C45.42168232 468.44471201 45.45704921 459.5769674 45.47862434 450.7090826 C45.48898796 446.58978318 45.50300849 442.47056884 45.52587891 438.35131836 C45.5478759 434.36367031 45.55962415 430.37610324 45.56475449 426.38839912 C45.56840273 424.87964163 45.57552395 423.37088772 45.58646011 421.86216545 C45.72275488 402.24947908 43.39604668 387.71259582 30.96484375 371.75390625 C27.7123441 367.51626832 24.77070337 363.07061708 21.8125 358.625 C21.27544434 357.82175293 20.73838867 357.01850586 20.18505859 356.19091797 C16.375 350.44299543 16.375 350.44299543 16.375 349.3125 C17.86942627 349.0791394 17.86942627 349.0791394 19.39404297 348.84106445 C53.53229267 343.47816323 84.39831437 338.09637864 110.375 313.3125 C111.05046875 312.72339844 111.7259375 312.13429688 112.421875 311.52734375 C128.67133067 296.74033909 135.85451123 274.27815803 137.1875 252.9375 C138.32723925 228.68597816 131.47544639 205.16768203 116.70068359 185.86499023 C112.40289506 180.24975037 110.93671443 176.43464043 111.375 169.3125 C111.82594662 167.34229275 112.32909863 165.38353729 112.875 163.4375 C114.47728855 156.3980617 114.679142 149.58273053 114.6875 142.375 C114.69265625 141.29686035 114.6978125 140.2187207 114.703125 139.10791016 C114.65390651 133.46448348 114.27663461 128.63859215 112.375 123.3125 C96.59685802 125.56652028 82.21951952 135.31932525 68.9050293 143.58251953 C61.38499385 148.24474644 54.51830439 148.13160878 46 146.2890625 C44.12329841 145.84568326 42.24833049 145.39491326 40.375 144.9375 C11.7590428 138.38613936 -17.13810659 138.65494126 -45.65478516 146.04199219 C-52.85285405 147.84722775 -59.53630886 148.52891155 -66.25 144.875 C-67.26707031 144.3284375 -68.28414063 143.781875 -69.33203125 143.21875 C-73.53957459 140.78306655 -77.68469115 138.25152308 -81.83300781 135.71679688 C-91.13645627 130.10338387 -100.79693267 125.02219484 -111.625 123.3125 Z " fill="#FFFFFF" transform="translate(255.625,-0.3125)"/>
</svg>
