<?xml version="1.0" encoding="UTF-8"?>
<svg version="1.1" xmlns="http://www.w3.org/2000/svg" width="512" height="512">
<path d="M0 0 C2.60879812 -0.0057127 5.21759375 -0.01268042 7.8263855 -0.02079773 C14.1391007 -0.03787119 20.45171587 -0.03884966 26.76444814 -0.03358483 C31.90355556 -0.02951978 37.04263375 -0.03101416 42.18173981 -0.03633308 C42.91717011 -0.03708151 43.65260041 -0.03782993 44.41031648 -0.03860103 C45.90504605 -0.04013274 47.39977562 -0.04167109 48.89450517 -0.043216 C62.86820079 -0.0569 76.84184021 -0.05153267 90.8155345 -0.04003078 C103.55231298 -0.0301062 116.28894603 -0.04303298 129.02570209 -0.06696498 C142.15597082 -0.09144731 155.28617207 -0.10094132 168.41646314 -0.09431225 C175.76719471 -0.09083977 183.11781464 -0.09292014 190.46852875 -0.11056328 C197.38641387 -0.12696389 204.30401914 -0.12196266 211.22189713 -0.10325813 C213.74480515 -0.09960055 216.26773408 -0.10259683 218.79062271 -0.11314392 C260.98894612 -0.27593794 296.04475441 12.97995302 326.23583984 42.8215332 C355.0144587 71.77908647 364.28471914 108.94089825 364.20581055 148.60229492 C364.21152325 151.21109304 364.21849096 153.81988867 364.22660828 156.42868042 C364.24368173 162.74139562 364.24466021 169.05401079 364.23939537 175.36674306 C364.23533032 180.50585048 364.23682471 185.64492867 364.24214363 190.78403473 C364.24289205 191.51946503 364.24364048 192.25489533 364.24441158 193.0126114 C364.24594329 194.50734097 364.24748163 196.00207054 364.24902654 197.49680009 C364.26271055 211.47049571 364.25734322 225.44413513 364.24584133 239.41782942 C364.23591674 252.15460791 364.24884353 264.89124095 364.27277552 277.62799701 C364.29725785 290.75826574 364.30675187 303.888467 364.3001228 317.01875806 C364.29665031 324.36948963 364.29873069 331.72010957 364.31637383 339.07082367 C364.33277444 345.9887088 364.3277732 352.90631406 364.30906868 359.82419205 C364.3054111 362.34710008 364.30840737 364.870029 364.31895447 367.39291763 C364.48174849 409.59124104 351.22585753 444.64704934 321.38427734 474.83813477 C292.42672407 503.61675362 255.26491229 512.88701406 215.60351562 512.80810547 C212.9947175 512.81381817 210.38592188 512.82078589 207.77713013 512.8289032 C201.46441492 512.84597666 195.15179975 512.84695513 188.83906749 512.84169029 C183.69996007 512.83762525 178.56088188 512.83911963 173.42177582 512.84443855 C172.31863036 512.84556119 172.31863036 512.84556119 171.19319914 512.8467065 C169.69846957 512.84823821 168.20374001 512.84977656 166.70901045 512.85132147 C152.73531483 512.86500547 138.76167542 512.85963814 124.78798112 512.84813625 C112.05120264 512.83821167 99.3145696 512.85113845 86.57781354 512.87507045 C73.44754481 512.89955277 60.31734355 512.90904679 47.18705249 512.90241772 C39.83632092 512.89894524 32.48570098 512.90102561 25.13498688 512.91866875 C18.21710175 512.93506936 11.29949649 512.93006812 4.3816185 512.9113636 C1.85871047 512.90770602 -0.66421845 512.91070229 -3.18710709 512.92124939 C-45.38543049 513.08404341 -80.44123879 499.82815245 -110.63232422 469.98657227 C-139.41094307 441.02901899 -148.68120352 403.86720722 -148.60229492 364.20581055 C-148.60800762 361.59701242 -148.61497534 358.9882168 -148.62309265 356.37942505 C-148.64016611 350.06670985 -148.64114458 343.75409468 -148.63587975 337.44136241 C-148.6318147 332.30225499 -148.63330908 327.1631768 -148.63862801 322.02407074 C-148.63937643 321.28864044 -148.64012485 320.55321013 -148.64089595 319.79549406 C-148.64242766 318.30076449 -148.64396601 316.80603493 -148.64551092 315.31130537 C-148.65919493 301.33760976 -148.65382759 287.36397034 -148.64232571 273.39027604 C-148.63240112 260.65349756 -148.6453279 247.91686452 -148.6692599 235.18010846 C-148.69374223 222.04983973 -148.70323624 208.91963847 -148.69660717 195.78934741 C-148.69313469 188.43861584 -148.69521506 181.0879959 -148.7128582 173.7372818 C-148.72925881 166.81939667 -148.72425758 159.90179141 -148.70555305 152.98391342 C-148.70189548 150.46100539 -148.70489175 147.93807647 -148.71543884 145.41518784 C-148.87823286 103.21686443 -135.6223419 68.16105613 -105.78076172 37.9699707 C-76.82320845 9.19135185 -39.66139667 -0.07890859 0 0 Z M-58.19824219 42.40405273 C-59.10960937 42.84362305 -60.02097656 43.28319336 -60.95996094 43.73608398 C-85.36905785 56.10098417 -103.89498214 78.90977213 -112.42724609 104.73046875 C-115.66750041 115.00596911 -117.49958651 124.71198207 -117.46566772 135.50793457 C-117.47019884 136.58183646 -117.47472995 137.65573834 -117.47939837 138.76218271 C-117.49199317 142.33751206 -117.49042515 145.91268812 -117.48876953 149.48803711 C-117.49475797 152.06126093 -117.50156424 154.63448296 -117.50912476 157.20770264 C-117.52568136 163.45952175 -117.53123194 169.71130313 -117.53234951 175.96314234 C-117.53330283 181.0514275 -117.53742725 186.13970031 -117.54375076 191.22798157 C-117.56135107 205.68683192 -117.5705919 220.14565268 -117.56908982 234.60451382 C-117.5690099 235.3826976 -117.56892999 236.16088138 -117.56884766 236.96264648 C-117.56876589 237.74179218 -117.56868413 238.52093788 -117.56859989 239.32369405 C-117.56778805 251.93360922 -117.58690332 264.54340464 -117.61512439 277.15328521 C-117.64394143 290.13301963 -117.65765975 303.11269583 -117.65593684 316.09246302 C-117.65527582 323.36664039 -117.66064036 330.64069234 -117.68229294 337.9148407 C-117.70255027 344.76366754 -117.70174145 351.61222686 -117.68725967 358.4610672 C-117.68518083 360.96265806 -117.68981667 363.46426579 -117.70198059 365.96582794 C-117.85967501 400.66805546 -108.04226393 428.01307583 -83.70214844 452.96264648 C-77.20094113 459.12224684 -69.88772515 463.88082746 -62.19824219 468.40405273 C-60.78285156 469.23936523 -60.78285156 469.23936523 -59.33886719 470.09155273 C-53.36794481 473.33001911 -47.15216259 475.59836422 -40.69824219 477.65405273 C-39.95880371 477.90050537 -39.21936523 478.14695801 -38.45751953 478.40087891 C-21.88741698 483.37466047 -3.69481318 482.6973602 13.41894531 482.6628418 C15.7145397 482.66555944 18.0101332 482.66912466 20.3057251 482.67346191 C26.47926263 482.68249631 32.65273251 482.67907899 38.82627106 482.67270374 C45.32444932 482.66759697 51.82262226 482.67234807 58.32080078 482.67547607 C69.92406712 482.67933365 81.52730293 482.67316593 93.13056445 482.6629574 C103.60756583 482.65402444 114.08452286 482.65557728 124.56152344 482.66479492 C136.78823032 482.67554723 149.01490569 482.67945591 161.2416172 482.67357039 C167.69183032 482.67047191 174.14201303 482.66998241 180.59222412 482.67664337 C186.65975698 482.68247287 192.7272071 482.67831873 198.79473114 482.66685486 C201.00522475 482.66423797 203.21572547 482.66492163 205.42621613 482.66938019 C223.83985349 482.70306135 242.26357161 482.59039781 259.80175781 476.40405273 C261.0225 475.9825293 262.24324219 475.56100586 263.50097656 475.12670898 C290.90246172 465.19300896 311.9693571 443.58660311 324.45800781 417.60327148 C330.05678359 404.27362799 333.11840145 390.70097917 333.06245422 376.23565674 C333.06627977 375.16695083 333.07010532 374.09824493 333.07404679 372.997154 C333.08429749 369.44556119 333.08039975 365.89413246 333.07641602 362.3425293 C333.08076691 359.78399507 333.08595132 357.22546215 333.09190369 354.66693115 C333.10387958 348.45568227 333.10644984 342.24449303 333.10410342 336.03323486 C333.1023149 330.97975007 333.10408132 325.92627834 333.10832787 320.8727951 C333.10922065 319.79080999 333.10922065 319.79080999 333.11013147 318.68696658 C333.11134332 317.22121543 333.11255746 315.75546427 333.11377385 314.28971311 C333.12463276 300.56517539 333.12249491 286.84066227 333.116389 273.11612317 C333.11122322 260.5883301 333.12246928 248.06061486 333.14148722 235.53283718 C333.16090768 222.64009768 333.16911414 209.74739493 333.16536397 196.85464072 C333.16345805 189.62810691 333.16587957 182.4016393 333.18007851 175.17511749 C333.19330431 168.37556073 333.19067539 161.57618413 333.17766762 154.77661896 C333.17531076 152.2898961 333.17800433 149.80316219 333.18629074 147.31645203 C333.29006413 113.73698861 324.45292997 86.10369014 300.75097656 61.29077148 C286.54937516 47.01274034 268.25840105 37.57940886 248.73925781 33.09155273 C248.05653809 32.93211182 247.37381836 32.7726709 246.67041016 32.60839844 C232.36184529 29.57998049 217.40596024 30.25497922 202.86572266 30.25878906 C200.57101385 30.25579192 198.27630555 30.25238813 195.9815979 30.24861145 C189.78293193 30.23982341 183.58427979 30.23743553 177.3856082 30.23679566 C173.50283511 30.23608217 169.62006547 30.2339422 165.73729324 30.23129845 C152.86166104 30.22253745 139.98603989 30.2178766 127.11040513 30.21862892 C126.41864429 30.21866888 125.72688345 30.21870883 125.01416016 30.21875 C123.97522737 30.21881132 123.97522737 30.21881132 122.91530605 30.21887388 C111.70380301 30.21927988 100.49233363 30.20971784 89.28084032 30.19561163 C77.72253079 30.18118576 66.16423914 30.17452723 54.60592043 30.17520541 C48.13549261 30.17545904 41.66510292 30.17268292 35.19468307 30.16202736 C29.10261324 30.15226765 23.01061738 30.15232056 16.91854477 30.15954399 C14.6983784 30.16058014 12.47820723 30.15828554 10.25804901 30.15218353 C-13.94509501 30.09003586 -36.24138932 31.21423169 -58.19824219 42.40405273 Z " fill="#FFFFFF" transform="translate(148.1982421875,-0.404052734375)"/>
<path d="M0 0 C0.73460449 0.19835449 1.46920898 0.39670898 2.22607422 0.60107422 C24.83004626 6.79806285 44.07957734 19.00597729 61 35 C61.81082031 35.74636719 62.62164062 36.49273437 63.45703125 37.26171875 C80.9089877 53.88917332 92.74805568 75.84596739 99 99 C99.20737793 99.71784668 99.41475586 100.43569336 99.62841797 101.17529297 C105.92433346 123.55689927 105.43328591 150.73093338 99 173 C98.70246826 174.10190674 98.70246826 174.10190674 98.39892578 175.22607422 C92.20193715 197.83004626 79.99402271 217.07957734 64 234 C63.25363281 234.81082031 62.50726563 235.62164062 61.73828125 236.45703125 C44.23665527 254.82650645 21.26156771 266.35060709 -3 273 C-3.66757324 273.19062012 -4.33514648 273.38124023 -5.02294922 273.57763672 C-26.12311455 279.32824037 -53.18720512 278.01258519 -74 272 C-74.73460449 271.80164551 -75.46920898 271.60329102 -76.22607422 271.39892578 C-98.83004626 265.20193715 -118.07957734 252.99402271 -135 237 C-135.81082031 236.25363281 -136.62164062 235.50726563 -137.45703125 234.73828125 C-155.82650645 217.23665527 -167.35060709 194.26156771 -174 170 C-174.28593018 168.99864014 -174.28593018 168.99864014 -174.57763672 167.97705078 C-180.32824037 146.87688545 -179.01258519 119.81279488 -173 99 C-172.80164551 98.26539551 -172.60329102 97.53079102 -172.39892578 96.77392578 C-166.20193715 74.16995374 -153.99402271 54.92042266 -138 38 C-137.25363281 37.18917969 -136.50726563 36.37835938 -135.73828125 35.54296875 C-118.23665527 17.17349355 -95.26156771 5.64939291 -71 -1 C-70.33242676 -1.19062012 -69.66485352 -1.38124023 -68.97705078 -1.57763672 C-47.87688545 -7.32824037 -20.81279488 -6.01258519 0 0 Z M-69 31 C-70.13953125 31.36222656 -71.2790625 31.72445312 -72.453125 32.09765625 C-100.24702149 42.00007106 -123.23006663 61.90135008 -135.9375 88.625 C-147.29153146 113.33338263 -150.33882649 141.82554052 -142 168 C-141.45666016 169.70929688 -141.45666016 169.70929688 -140.90234375 171.453125 C-130.99992894 199.24702149 -111.09864992 222.23006663 -84.375 234.9375 C-59.66661737 246.29153146 -31.17445948 249.33882649 -5 241 C-3.86046875 240.63777344 -2.7209375 240.27554688 -1.546875 239.90234375 C26.24702149 229.99992894 49.23006663 210.09864992 61.9375 183.375 C73.29153146 158.66661737 76.33882649 130.17445948 68 104 C67.63777344 102.86046875 67.27554688 101.7209375 66.90234375 100.546875 C56.99992894 72.75297851 37.09864992 49.76993337 10.375 37.0625 C-14.33338263 25.70846854 -42.82554052 22.66117351 -69 31 Z " fill="#FFFFFF" transform="translate(293,120)"/>
<path d="M0 0 C8.72944456 6.81752011 14.0106683 15.50379882 16.1875 26.375 C17.40221041 39.61258278 15.23379589 50.66992807 7.1875 61.375 C2.26466881 66.66248535 -3.06813791 70.73987206 -9.8125 73.375 C-10.69164062 73.73078125 -11.57078125 74.0865625 -12.4765625 74.453125 C-22.91906037 77.33887383 -36.33408969 76.71937729 -45.8125 71.375 C-56.01339533 64.8021743 -63.68172869 55.98897123 -66.63671875 44.04296875 C-68.91629484 30.87369797 -66.73614695 19.25559198 -59.125 8.25 C-44.53713079 -10.14977474 -19.14728444 -12.8690592 0 0 Z M-33.8125 26.375 C-36.4915573 30.39358595 -36.50860694 33.65141721 -35.8125 38.375 C-34.01856332 41.24529869 -32.82986724 42.86631638 -29.8125 44.375 C-26.75329426 44.79571592 -23.8657254 44.86014117 -20.8125 44.375 C-18.05680553 42.19340855 -16.37661253 40.50322506 -14.8125 37.375 C-14.28286865 32.81593956 -14.28286865 32.81593956 -15.859375 28.6171875 C-17.64844493 26.43873176 -19.27165625 24.64542188 -21.8125 23.375 C-26.80941647 22.99787423 -29.80317725 23.28209388 -33.8125 26.375 Z " fill="#FFFFFF" transform="translate(424.8125,73.625)"/>
</svg>
