<?xml version="1.0" encoding="UTF-8"?>
<svg xmlns="http://www.w3.org/2000/svg" xmlns:xlink="http://www.w3.org/1999/xlink" width="400px" height="400px" viewBox="0 0 400 400" version="1.1">
<g id="surface1">
<path style=" stroke:none;fill-rule:nonzero;fill:rgb(100%,100%,100%);fill-opacity:1;" d="M 297.710938 116.101562 C 299.945312 116.113281 302.179688 116.101562 304.410156 116.085938 C 315.726562 116.074219 326.738281 117.050781 337.5 120.800781 C 338.359375 121.09375 338.359375 121.09375 339.238281 121.394531 C 349.523438 125.085938 358.796875 130.519531 367.1875 137.5 C 368.269531 138.386719 368.269531 138.386719 369.371094 139.292969 C 385.78125 153.460938 394.992188 172.792969 399.21875 193.75 C 399.359375 194.425781 399.496094 195.101562 399.640625 195.796875 C 400.113281 199.257812 400.117188 202.65625 400.113281 206.148438 C 400.117188 206.921875 400.121094 207.691406 400.125 208.488281 C 400.132812 211.074219 400.136719 213.664062 400.136719 216.25 C 400.144531 218.105469 400.148438 219.960938 400.152344 221.816406 C 400.167969 227.382812 400.175781 232.945312 400.183594 238.511719 C 400.1875 241.132812 400.191406 243.753906 400.195312 246.378906 C 400.210938 255.097656 400.21875 263.8125 400.226562 272.53125 C 400.226562 274.792969 400.230469 277.050781 400.230469 279.308594 C 400.230469 279.871094 400.230469 280.433594 400.230469 281.011719 C 400.238281 290.117188 400.257812 299.222656 400.285156 308.328125 C 400.308594 317.679688 400.324219 327.03125 400.324219 336.386719 C 400.328125 341.636719 400.335938 346.882812 400.355469 352.132812 C 400.371094 357.070312 400.375 362.003906 400.367188 366.9375 C 400.367188 368.75 400.371094 370.5625 400.382812 372.375 C 400.398438 374.847656 400.390625 377.320312 400.382812 379.789062 C 400.394531 380.867188 400.394531 380.867188 400.40625 381.96875 C 400.355469 387.113281 399.273438 389.773438 395.597656 393.472656 C 391.417969 396.746094 388.9375 396.996094 383.722656 397.011719 C 383.007812 397.019531 382.289062 397.023438 381.554688 397.027344 C 379.179688 397.042969 376.804688 397.054688 374.429688 397.0625 C 373.617188 397.0625 372.808594 397.066406 371.972656 397.070312 C 367.679688 397.085938 363.390625 397.097656 359.097656 397.105469 C 354.667969 397.113281 350.234375 397.140625 345.804688 397.171875 C 342.398438 397.191406 338.988281 397.199219 335.582031 397.203125 C 333.949219 397.207031 332.316406 397.214844 330.683594 397.230469 C 328.394531 397.25 326.105469 397.246094 323.816406 397.242188 C 322.808594 397.257812 322.808594 397.257812 321.78125 397.273438 C 317.261719 397.234375 314.660156 396.34375 310.9375 393.75 C 306.992188 389.484375 306.015625 386.308594 306.046875 380.570312 C 306.046875 379.945312 306.042969 379.320312 306.039062 378.675781 C 306.03125 376.585938 306.035156 374.492188 306.039062 372.398438 C 306.035156 370.898438 306.03125 369.394531 306.027344 367.894531 C 306.015625 364.664062 306.011719 361.429688 306.011719 358.195312 C 306.011719 353.078125 305.996094 347.957031 305.980469 342.839844 C 305.941406 330.117188 305.917969 317.394531 305.902344 304.671875 C 305.886719 294.796875 305.871094 284.921875 305.835938 275.046875 C 305.820312 269.964844 305.8125 264.882812 305.8125 259.800781 C 305.8125 256.628906 305.800781 253.453125 305.789062 250.28125 C 305.785156 248.816406 305.785156 247.351562 305.789062 245.890625 C 305.816406 233.839844 305.308594 222.601562 296.925781 213.136719 C 289.523438 205.949219 279.8125 202.503906 269.628906 202.097656 C 259.660156 202.378906 250.386719 206.167969 243.457031 213.425781 C 234.015625 225.046875 233.242188 238.242188 233.292969 252.519531 C 233.289062 254 233.285156 255.484375 233.28125 256.964844 C 233.269531 260.128906 233.269531 263.296875 233.273438 266.460938 C 233.277344 271.46875 233.265625 276.472656 233.25 281.480469 C 233.21875 293 233.210938 304.523438 233.199219 316.042969 C 233.191406 326.625 233.179688 337.210938 233.148438 347.792969 C 233.132812 352.769531 233.128906 357.75 233.136719 362.726562 C 233.136719 365.816406 233.128906 368.90625 233.117188 371.996094 C 233.113281 373.429688 233.117188 374.863281 233.121094 376.296875 C 233.128906 378.25 233.121094 380.207031 233.109375 382.160156 C 233.117188 383.011719 233.117188 383.011719 233.125 383.882812 C 233.085938 387.3125 232.546875 389.445312 230.46875 392.1875 C 227.207031 395.113281 224.464844 397.0625 220.019531 397.082031 C 219.339844 397.089844 218.660156 397.097656 217.960938 397.105469 C 217.222656 397.101562 216.484375 397.101562 215.722656 397.101562 C 214.550781 397.109375 214.550781 397.109375 213.351562 397.117188 C 210.761719 397.132812 208.167969 397.136719 205.578125 397.136719 C 203.777344 397.140625 201.972656 397.148438 200.171875 397.152344 C 196.390625 397.164062 192.613281 397.164062 188.832031 397.164062 C 183.992188 397.164062 179.15625 397.1875 174.320312 397.210938 C 170.597656 397.230469 166.871094 397.234375 163.148438 397.230469 C 161.367188 397.234375 159.582031 397.242188 157.800781 397.253906 C 155.300781 397.269531 152.804688 397.265625 150.304688 397.253906 C 149.574219 397.261719 148.839844 397.273438 148.085938 397.28125 C 143.445312 397.238281 139.773438 396.484375 135.9375 393.75 C 132.972656 390.023438 131.933594 387.203125 131.929688 382.503906 C 131.925781 381.625 131.921875 380.742188 131.917969 379.835938 C 131.921875 378.867188 131.921875 377.894531 131.921875 376.894531 C 131.917969 375.863281 131.917969 374.835938 131.914062 373.777344 C 131.90625 370.914062 131.90625 368.054688 131.90625 365.191406 C 131.90625 362.109375 131.898438 359.027344 131.894531 355.941406 C 131.882812 349.195312 131.878906 342.453125 131.875 335.707031 C 131.871094 331.496094 131.871094 327.285156 131.867188 323.074219 C 131.855469 311.417969 131.847656 299.761719 131.84375 288.105469 C 131.84375 287.359375 131.84375 286.613281 131.84375 285.84375 C 131.84375 285.09375 131.84375 284.347656 131.84375 283.578125 C 131.84375 282.0625 131.84375 280.546875 131.84375 279.03125 C 131.84375 278.277344 131.84375 277.527344 131.84375 276.75 C 131.839844 264.566406 131.828125 252.382812 131.808594 240.199219 C 131.789062 227.695312 131.78125 215.1875 131.777344 202.683594 C 131.777344 195.660156 131.773438 188.636719 131.757812 181.613281 C 131.746094 175.632812 131.742188 169.65625 131.75 163.675781 C 131.753906 160.621094 131.753906 157.570312 131.742188 154.519531 C 131.730469 151.726562 131.730469 148.933594 131.742188 146.136719 C 131.742188 144.648438 131.734375 143.164062 131.726562 141.675781 C 131.761719 135.613281 132.226562 131.605469 136.085938 126.757812 C 140.832031 122.957031 145.65625 122.308594 151.523438 122.351562 C 152.527344 122.347656 152.527344 122.347656 153.550781 122.339844 C 155.746094 122.332031 157.9375 122.335938 160.132812 122.34375 C 161.667969 122.34375 163.203125 122.339844 164.738281 122.339844 C 167.945312 122.335938 171.15625 122.339844 174.367188 122.351562 C 178.46875 122.363281 182.574219 122.355469 186.675781 122.34375 C 189.84375 122.332031 193.011719 122.335938 196.179688 122.34375 C 197.691406 122.34375 199.203125 122.34375 200.714844 122.335938 C 202.832031 122.332031 204.953125 122.339844 207.070312 122.351562 C 207.996094 122.347656 207.996094 122.347656 208.941406 122.339844 C 213.683594 122.390625 218.109375 123.203125 221.894531 126.289062 C 222.242188 126.734375 222.589844 127.179688 222.949219 127.636719 C 223.488281 128.296875 223.488281 128.296875 224.042969 128.972656 C 226.1875 132.324219 226.789062 135.367188 227.050781 139.304688 C 227.136719 140.558594 227.136719 140.558594 227.226562 141.835938 C 227.265625 142.46875 227.304688 143.097656 227.34375 143.75 C 227.84375 143.234375 228.34375 142.71875 228.859375 142.1875 C 229.652344 141.402344 230.449219 140.621094 231.25 139.84375 C 231.734375 139.371094 232.21875 138.898438 232.71875 138.414062 C 250.515625 121.796875 274.023438 115.941406 297.710938 116.101562 Z M 237.5 153.90625 C 236.417969 155.210938 235.355469 156.53125 234.3125 157.859375 C 230.445312 162.636719 226.207031 166.9375 221.828125 171.238281 C 221.066406 171.992188 220.308594 172.742188 219.550781 173.492188 C 217.726562 175.300781 215.894531 177.105469 214.0625 178.90625 C 214.050781 178.128906 214.050781 178.128906 214.039062 177.339844 C 213.953125 171.980469 213.863281 166.617188 213.773438 161.257812 C 213.738281 159.253906 213.707031 157.253906 213.675781 155.25 C 213.628906 152.378906 213.578125 149.503906 213.527344 146.632812 C 213.515625 145.730469 213.503906 144.832031 213.488281 143.902344 C 213.464844 142.65625 213.464844 142.65625 213.441406 141.390625 C 213.421875 140.289062 213.421875 140.289062 213.40625 139.164062 C 213.464844 137.511719 213.464844 137.511719 212.5 136.71875 C 190.84375 136.71875 169.1875 136.71875 146.875 136.71875 C 146.875 217.929688 146.875 299.140625 146.875 382.8125 C 170.851562 382.8125 194.828125 382.8125 219.53125 382.8125 C 219.558594 372.222656 219.589844 361.636719 219.621094 350.726562 C 219.644531 344.011719 219.667969 337.296875 219.695312 330.582031 C 219.738281 319.925781 219.777344 309.273438 219.800781 298.621094 C 219.820312 290.859375 219.847656 283.097656 219.882812 275.339844 C 219.902344 271.234375 219.914062 267.128906 219.921875 263.019531 C 219.925781 259.148438 219.941406 255.277344 219.964844 251.40625 C 219.972656 249.992188 219.972656 248.578125 219.972656 247.164062 C 219.960938 231.90625 222.429688 218.609375 232.03125 206.25 C 232.398438 205.753906 232.769531 205.253906 233.148438 204.742188 C 240.269531 195.6875 251.738281 190.808594 262.746094 188.523438 C 278.070312 187.226562 291.671875 190.523438 303.90625 200 C 304.550781 200.472656 305.195312 200.945312 305.859375 201.433594 C 314.621094 209.019531 318.261719 220.089844 319.53125 231.25 C 319.835938 236.234375 319.820312 241.234375 319.851562 246.226562 C 319.867188 247.722656 319.882812 249.214844 319.898438 250.710938 C 319.941406 254.742188 319.972656 258.773438 320.003906 262.804688 C 320.039062 267.027344 320.082031 271.25 320.125 275.472656 C 320.203125 283.457031 320.273438 291.445312 320.339844 299.429688 C 320.417969 308.523438 320.503906 317.621094 320.589844 326.714844 C 320.765625 345.414062 320.933594 364.113281 321.09375 382.8125 C 342.492188 382.8125 363.890625 382.8125 385.9375 382.8125 C 385.988281 359.824219 386.03125 336.832031 386.058594 313.84375 C 386.058594 311.121094 386.0625 308.402344 386.066406 305.683594 C 386.066406 305.144531 386.066406 304.601562 386.066406 304.042969 C 386.078125 295.300781 386.097656 286.554688 386.117188 277.808594 C 386.140625 268.824219 386.152344 259.839844 386.15625 250.855469 C 386.160156 245.816406 386.167969 240.773438 386.183594 235.730469 C 386.203125 230.980469 386.207031 226.226562 386.203125 221.476562 C 386.203125 219.738281 386.207031 218 386.21875 216.261719 C 386.273438 204.457031 385.585938 193.574219 381.496094 182.371094 C 381.296875 181.824219 381.097656 181.277344 380.894531 180.710938 C 373.597656 161.328125 358.648438 146.1875 340.1875 137.253906 C 327.824219 131.839844 315.898438 130.1875 302.542969 130.222656 C 300.546875 130.222656 298.554688 130.207031 296.558594 130.1875 C 274.066406 130.101562 253.613281 137.871094 237.5 153.90625 Z M 237.5 153.90625 "/>
<path style=" stroke:none;fill-rule:nonzero;fill:rgb(100%,100%,100%);fill-opacity:1;" d="M 29.84375 122.53125 C 30.671875 122.523438 30.671875 122.523438 31.519531 122.519531 C 33.335938 122.507812 35.152344 122.5 36.972656 122.496094 C 37.910156 122.496094 37.910156 122.496094 38.863281 122.492188 C 42.171875 122.480469 45.476562 122.472656 48.785156 122.46875 C 52.183594 122.464844 55.582031 122.445312 58.980469 122.421875 C 61.605469 122.410156 64.234375 122.40625 66.863281 122.402344 C 68.113281 122.402344 69.367188 122.394531 70.617188 122.382812 C 87.605469 122.253906 87.605469 122.253906 93.652344 127.878906 C 94.472656 128.609375 94.472656 128.609375 95.304688 129.355469 C 100.117188 135.167969 100.453125 140.203125 100.40625 147.511719 C 100.417969 149.015625 100.417969 149.015625 100.425781 150.546875 C 100.441406 153.316406 100.4375 156.082031 100.429688 158.851562 C 100.425781 161.839844 100.441406 164.828125 100.453125 167.820312 C 100.472656 173.671875 100.476562 179.523438 100.472656 185.378906 C 100.46875 190.136719 100.472656 194.894531 100.480469 199.652344 C 100.480469 200.667969 100.480469 200.667969 100.480469 201.707031 C 100.484375 203.082031 100.484375 204.460938 100.488281 205.835938 C 100.503906 218.742188 100.5 231.652344 100.492188 244.558594 C 100.484375 256.359375 100.5 268.160156 100.53125 279.960938 C 100.5625 292.085938 100.574219 304.210938 100.566406 316.335938 C 100.566406 323.136719 100.570312 329.941406 100.589844 336.746094 C 100.609375 342.539062 100.613281 348.332031 100.59375 354.125 C 100.582031 357.078125 100.582031 360.03125 100.601562 362.984375 C 100.621094 366.191406 100.605469 369.394531 100.585938 372.601562 C 100.597656 373.53125 100.609375 374.457031 100.621094 375.414062 C 100.539062 381.558594 99.214844 385.808594 95.3125 390.625 C 90.164062 395.421875 85.277344 397.109375 78.230469 397.113281 C 77.632812 397.121094 77.035156 397.128906 76.417969 397.132812 C 74.453125 397.152344 72.484375 397.160156 70.519531 397.164062 C 69.144531 397.171875 67.769531 397.179688 66.390625 397.1875 C 63.511719 397.199219 60.628906 397.207031 57.746094 397.207031 C 54.070312 397.210938 50.394531 397.242188 46.722656 397.277344 C 43.878906 397.300781 41.035156 397.304688 38.195312 397.304688 C 36.839844 397.308594 35.488281 397.320312 34.132812 397.335938 C 25.898438 397.425781 18.78125 397.320312 12.402344 391.4375 C 6.394531 385.296875 5.90625 378.816406 5.945312 370.605469 C 5.941406 369.621094 5.9375 368.632812 5.933594 367.617188 C 5.921875 364.894531 5.925781 362.171875 5.933594 359.449219 C 5.9375 356.507812 5.925781 353.566406 5.917969 350.625 C 5.90625 344.863281 5.902344 339.105469 5.90625 333.347656 C 5.910156 328.664062 5.910156 323.984375 5.90625 319.300781 C 5.90625 318.300781 5.90625 318.300781 5.902344 317.28125 C 5.902344 315.925781 5.902344 314.570312 5.902344 313.214844 C 5.890625 300.515625 5.894531 287.816406 5.902344 275.117188 C 5.910156 263.503906 5.902344 251.894531 5.882812 240.28125 C 5.863281 228.351562 5.855469 216.421875 5.859375 204.488281 C 5.863281 197.792969 5.863281 191.101562 5.847656 184.40625 C 5.835938 178.707031 5.835938 173.007812 5.847656 167.304688 C 5.855469 164.402344 5.859375 161.496094 5.847656 158.589844 C 5.832031 155.433594 5.84375 152.28125 5.859375 149.125 C 5.851562 148.210938 5.84375 147.300781 5.835938 146.359375 C 5.898438 139.347656 7.140625 133.46875 11.960938 128.171875 C 17.148438 123.453125 23.011719 122.566406 29.84375 122.53125 Z M 21.875 139.0625 C 20.160156 141.636719 20.117188 142.390625 20.113281 145.378906 C 20.105469 146.207031 20.101562 147.035156 20.097656 147.886719 C 20.097656 148.796875 20.101562 149.710938 20.105469 150.648438 C 20.101562 151.613281 20.097656 152.582031 20.09375 153.574219 C 20.085938 156.261719 20.082031 158.949219 20.085938 161.632812 C 20.085938 164.527344 20.078125 167.425781 20.070312 170.320312 C 20.054688 175.992188 20.050781 181.667969 20.050781 187.339844 C 20.050781 191.949219 20.046875 196.5625 20.042969 201.171875 C 20.027344 214.238281 20.023438 227.304688 20.023438 240.371094 C 20.023438 241.074219 20.023438 241.78125 20.023438 242.503906 C 20.023438 243.210938 20.023438 243.917969 20.023438 244.644531 C 20.023438 256.082031 20.007812 267.519531 19.988281 278.957031 C 19.964844 290.691406 19.953125 302.429688 19.953125 314.167969 C 19.957031 320.761719 19.949219 327.351562 19.933594 333.945312 C 19.921875 339.558594 19.917969 345.167969 19.925781 350.78125 C 19.933594 353.644531 19.933594 356.511719 19.917969 359.375 C 19.90625 362.476562 19.914062 365.582031 19.925781 368.683594 C 19.917969 369.59375 19.910156 370.5 19.902344 371.4375 C 19.914062 376.265625 19.914062 376.265625 21.800781 380.621094 C 24.675781 383.097656 26.59375 382.921875 30.351562 382.949219 C 30.902344 382.957031 31.449219 382.960938 32.019531 382.964844 C 33.84375 382.980469 35.667969 382.992188 37.492188 383 C 38.113281 383 38.738281 383.003906 39.378906 383.007812 C 42.675781 383.023438 45.972656 383.035156 49.269531 383.042969 C 52.675781 383.050781 56.078125 383.078125 59.484375 383.109375 C 62.101562 383.128906 64.71875 383.136719 67.339844 383.140625 C 68.59375 383.144531 69.847656 383.152344 71.105469 383.167969 C 72.863281 383.1875 74.621094 383.183594 76.378906 383.179688 C 77.875 383.1875 77.875 383.1875 79.40625 383.195312 C 82.734375 382.710938 83.738281 382.257812 85.9375 379.6875 C 86.542969 376.554688 86.460938 373.441406 86.429688 370.257812 C 86.433594 369.28125 86.4375 368.304688 86.445312 367.296875 C 86.460938 364.585938 86.449219 361.871094 86.4375 359.160156 C 86.425781 356.234375 86.4375 353.308594 86.449219 350.386719 C 86.460938 344.65625 86.457031 338.925781 86.441406 333.195312 C 86.429688 328.539062 86.425781 323.882812 86.429688 319.226562 C 86.429688 318.230469 86.429688 318.230469 86.429688 317.21875 C 86.433594 315.875 86.433594 314.527344 86.433594 313.183594 C 86.441406 301.285156 86.425781 289.382812 86.402344 277.484375 C 86.382812 265.933594 86.375 254.378906 86.386719 242.828125 C 86.402344 230.253906 86.402344 217.679688 86.390625 205.109375 C 86.390625 203.765625 86.386719 202.425781 86.386719 201.085938 C 86.386719 200.097656 86.386719 200.097656 86.382812 199.089844 C 86.378906 194.4375 86.382812 189.785156 86.386719 185.132812 C 86.394531 179.464844 86.386719 173.796875 86.367188 168.132812 C 86.359375 165.238281 86.355469 162.347656 86.363281 159.453125 C 86.371094 156.320312 86.355469 153.1875 86.339844 150.054688 C 86.347656 149.136719 86.351562 148.21875 86.359375 147.269531 C 86.351562 146.433594 86.34375 145.597656 86.332031 144.734375 C 86.332031 144.011719 86.332031 143.289062 86.332031 142.542969 C 85.8125 140.019531 84.796875 139.09375 82.8125 137.5 C 80.136719 136.609375 78.066406 136.609375 75.246094 136.59375 C 74.71875 136.589844 74.191406 136.585938 73.644531 136.582031 C 71.902344 136.570312 70.160156 136.5625 68.414062 136.558594 C 67.199219 136.554688 65.988281 136.550781 64.773438 136.546875 C 62.230469 136.539062 59.6875 136.535156 57.140625 136.53125 C 53.886719 136.527344 50.628906 136.507812 47.371094 136.484375 C 44.863281 136.472656 42.359375 136.46875 39.851562 136.464844 C 38.652344 136.464844 37.449219 136.457031 36.25 136.445312 C 34.570312 136.433594 32.890625 136.433594 31.207031 136.441406 C 30.25 136.4375 29.296875 136.433594 28.3125 136.433594 C 25.527344 136.746094 24.089844 137.378906 21.875 139.0625 Z M 21.875 139.0625 "/>
<path style=" stroke:none;fill-rule:nonzero;fill:rgb(100%,100%,100%);fill-opacity:1;" d="M 85.136719 12.527344 C 96.238281 21.140625 105.226562 33.429688 107.03125 47.65625 C 108.332031 64.027344 105.074219 79.113281 94.382812 92.039062 C 85.664062 102.058594 73.792969 109.25 60.359375 110.328125 C 44.195312 110.976562 30.222656 108.738281 17.773438 97.507812 C 7.574219 87.855469 0.261719 75.625 -0.234375 61.335938 C -0.410156 43.875 3.433594 30.429688 15.867188 17.683594 C 23.328125 10.589844 31.449219 6.394531 41.40625 3.90625 C 41.988281 3.753906 42.570312 3.605469 43.167969 3.449219 C 58.199219 1.183594 72.542969 3.914062 85.136719 12.527344 Z M 23.464844 30.066406 C 14.988281 40.542969 13.003906 50.949219 14.0625 64.0625 C 14.539062 66.855469 15.273438 69.285156 16.40625 71.875 C 16.707031 72.65625 16.707031 72.65625 17.011719 73.453125 C 20.488281 81.542969 28.222656 88.96875 36.183594 92.582031 C 45.652344 96.292969 56.46875 98.25 66.40625 94.875 C 76.683594 90.339844 85.761719 83.253906 90.019531 72.605469 C 93.792969 61.546875 94.359375 50.898438 89.671875 39.964844 C 84.308594 29.351562 76.390625 22.382812 65.21875 18.5625 C 64.578125 18.367188 63.941406 18.171875 63.28125 17.96875 C 62.804688 17.816406 62.324219 17.664062 61.832031 17.507812 C 47.554688 14.777344 33.363281 19.503906 23.464844 30.066406 Z M 23.464844 30.066406 "/>
</g>
</svg>
