<?xml version="1.0" encoding="UTF-8"?>
<svg version="1.1" xmlns="http://www.w3.org/2000/svg" width="500" height="400">
<path d="M0 0 C0.495 0.495 0.495 0.495 1 1 C0.92302768 7.14678918 -0.69222152 12.60927708 -2.8125 18.3125 C-6.25304307 28.01952404 -8.20384417 37.8781336 -10 48 C-9.53851563 47.05382812 -9.07703125 46.10765625 -8.6015625 45.1328125 C11.32361535 4.58715111 11.32361535 4.58715111 23 0 C25.8621729 -0.39622066 28.07638136 -0.29731715 31 0 C31.99 0.99 31.99 0.99 33 2 C31.5921657 10.56942616 28.64017203 18.79745626 26.00976562 27.0546875 C21.13806892 41.73608916 21.13806892 41.73608916 20 57 C23.06890187 58.53445094 25.70094266 57.54984289 29 57 C28.5111657 62.49938589 28.5111657 62.49938589 26.296875 64.66796875 C22.14362153 67.07657323 17.64117035 66.76882609 13 66 C10.05136388 63.40239199 9.23021592 61.69064777 8 58 C7.5878166 46.99649536 11.10486411 36.72328327 14.28857422 26.33691406 C15.23273506 23.23550448 16.12006123 20.12016937 17 17 C12.70610224 23.94891049 8.83584719 31.03833724 5.125 38.3125 C-7.0986598 61.99572206 -7.0986598 61.99572206 -12 66 C-15 66.5 -15 66.5 -18 66 C-21.35180354 61.92262957 -21.50539849 57.88681665 -21.4375 52.8125 C-21.43137695 52.02657471 -21.42525391 51.24064941 -21.41894531 50.4309082 C-21.0768621 37.20412908 -17.09099134 24.48718149 -13 12 C-19.69200723 20.8117615 -24.57249062 30.38903426 -29.59326172 40.19848633 C-40.1853846 60.83012022 -40.1853846 60.83012022 -48 66 C-50.359375 66.29296875 -50.359375 66.29296875 -52.75 66.1875 C-53.54921875 66.16042969 -54.3484375 66.13335937 -55.171875 66.10546875 C-55.77515625 66.07066406 -56.3784375 66.03585938 -57 66 C-57.495 63.525 -57.495 63.525 -58 61 C-57.154375 60.71125 -56.30875 60.4225 -55.4375 60.125 C-46.63929391 55.5925908 -42.12196541 42.95202087 -37.54296875 34.61328125 C-31.6214345 23.84583464 -25.95480522 13.6072065 -17 5 C-16.41605469 4.4328125 -15.83210938 3.865625 -15.23046875 3.28125 C-10.59994748 -0.62270236 -5.8896683 -0.78980226 0 0 Z M19 12 C20 14 20 14 20 14 Z " fill="#B1B1B1" transform="translate(59,158)"/>
<path d="M0 0 C1.3303125 0.00773438 1.3303125 0.00773438 2.6875 0.015625 C3.574375 0.01046875 4.46125 0.0053125 5.375 0 C7.6875 0.265625 7.6875 0.265625 9.6875 2.265625 C10.31854541 10.25487921 6.89211432 17.32610821 3.625 24.390625 C3.15255859 25.4425 2.68011719 26.494375 2.19335938 27.578125 C1.03748279 30.14673962 -0.13119349 32.70863191 -1.3125 35.265625 C11.25909579 29.90634645 17.76395008 14.33902217 23.81469727 2.82519531 C24.6875 1.265625 24.6875 1.265625 25.6875 0.265625 C32.21292373 0.02833686 32.21292373 0.02833686 34.6875 1.265625 C34.10866827 6.32541973 32.9815251 10.87972316 31.24609375 15.67578125 C31.00012955 16.36514267 30.75416534 17.05450409 30.50074768 17.76475525 C29.97890759 19.21904403 29.45344914 20.67203903 28.92456055 22.1237793 C28.13768924 24.29314145 27.37205273 26.46920111 26.60742188 28.64648438 C21.65539552 42.47861345 15.2551933 57.95094742 2.5625 66.328125 C-0.62750899 67.36834532 -2.97953454 67.6359545 -6.3125 67.265625 C-7.3025 66.605625 -8.2925 65.945625 -9.3125 65.265625 C-9.3125 64.275625 -9.3125 63.285625 -9.3125 62.265625 C-8.1575 61.79125 -7.0025 61.316875 -5.8125 60.828125 C5.33958604 55.10456762 9.35673189 44.29555003 13.6875 33.265625 C12.92824219 34.03390625 12.16898438 34.8021875 11.38671875 35.59375 C2.49790944 44.39251348 2.49790944 44.39251348 -3.75 44.515625 C-4.53246094 44.54140625 -5.31492187 44.5671875 -6.12109375 44.59375 C-8.89547893 44.17833404 -9.59199933 43.44774551 -11.3125 41.265625 C-12.81712194 33.91619068 -10.28410627 27.55390581 -7.3125 20.953125 C-6.55464184 19.23130198 -5.80435184 17.50612348 -5.0625 15.77734375 C-4.72734375 15.02928467 -4.3921875 14.28122559 -4.046875 13.51049805 C-2.96661941 10.20832047 -2.98671536 7.40587125 -3.9375 4.078125 C-4.06125 3.48 -4.185 2.881875 -4.3125 2.265625 C-2.3125 0.265625 -2.3125 0.265625 0 0 Z " fill="#B2B2B2" transform="translate(104.3125,179.734375)"/>
<path d="M0 0 C1.20462891 -0.02126953 1.20462891 -0.02126953 2.43359375 -0.04296875 C4.5625 0.1875 4.5625 0.1875 6.5625 2.1875 C7.1875 4.3125 7.1875 4.3125 7.5625 6.1875 C8.51125 5.383125 9.46 4.57875 10.4375 3.75 C14.63333561 0.19266111 17.60722056 -0.20349873 23.078125 -0.171875 C25.5625 0.1875 25.5625 0.1875 28.625 2.5625 C32.68165957 8.05861942 32.07485546 13.53441362 31.5625 20.1875 C29.5868634 29.51837827 22.98088044 37.47919869 15.1875 42.8125 C10.22175592 44.6960581 5.80413555 44.48797592 0.5625 44.1875 C-0.4275 44.1875 -1.4175 44.1875 -2.4375 44.1875 C-2.90929687 45.90646484 -2.90929687 45.90646484 -3.390625 47.66015625 C-3.82242836 49.19024206 -4.25474761 50.72018234 -4.6875 52.25 C-4.89246094 53.00216797 -5.09742188 53.75433594 -5.30859375 54.52929688 C-6.75251524 59.58302207 -8.66151875 63.72101735 -11.4375 68.1875 C-13.77044775 68.22991723 -16.10452567 68.22842937 -18.4375 68.1875 C-19.4375 67.1875 -19.4375 67.1875 -19.72265625 64.7890625 C-19.32067492 59.71198321 -17.58919587 55.33413405 -15.875 50.5625 C-12.61011729 41.11486563 -9.78967533 31.61842955 -7.3125 21.9375 C-6.99337646 20.73013184 -6.67425293 19.52276367 -6.34545898 18.27880859 C-5.9230896 16.58618896 -5.9230896 16.58618896 -5.4921875 14.859375 C-5.23937012 13.8600293 -4.98655273 12.86068359 -4.72607422 11.83105469 C-4.39842396 8.82953436 -4.94194433 7.73476 -6.4375 5.1875 C-5.7578483 0.42993808 -4.60965049 0.0368772 0 0 Z M13.25 9.375 C7.93622833 14.24117535 1.81900489 22.82141777 1.46484375 30.23046875 C1.47644531 30.93816406 1.48804688 31.64585937 1.5 32.375 C1.520625 33.633125 1.54125 34.89125 1.5625 36.1875 C3.5425 37.1775 3.5425 37.1775 5.5625 38.1875 C13.07632838 33.64425493 18.14024713 27.738185 20.5625 19.1875 C20.8633936 15.49080719 20.81134422 11.88560157 20.5625 8.1875 C16.90845321 6.88987554 16.79795746 7.03200923 13.25 9.375 Z " fill="#B2B2B2" transform="translate(177.4375,179.8125)"/>
<path d="M0 0 C1.04027344 -0.01417969 2.08054687 -0.02835938 3.15234375 -0.04296875 C6.08661201 0.18940954 7.65480279 0.53254183 10.0625 2.1875 C13.42721398 6.51801151 14.72574312 11.34396627 14.4453125 16.765625 C12.89704841 26.56076519 8.38964146 35.19010727 0.375 41.125 C-3.92886421 43.80476451 -6.8276107 44.36291313 -11.8125 44.4375 C-13.35550781 44.47617188 -13.35550781 44.47617188 -14.9296875 44.515625 C-18.37987164 44.13924128 -20.18160439 43.26769441 -22.9375 41.1875 C-26.77628763 34.43652865 -26.70256925 28.51776628 -24.8125 21.25 C-21.90408695 12.44359584 -16.92143423 5.9540279 -8.9375 1.1875 C-5.74593552 0.12364517 -3.35252524 0.02072018 0 0 Z M-5.3515625 8.578125 C-11.76353045 15.0848511 -15.09947209 23.70035463 -15.125 32.75 C-15.07770267 34.2297308 -15.02081896 35.70935988 -14.9375 37.1875 C-13.6175 37.8475 -12.2975 38.5075 -10.9375 39.1875 C-3.21502697 33.78176888 1.31956186 25.48969794 3.0625 16.1875 C3.41642593 11.89923467 3.531815 8.89147249 1.0625 5.1875 C-1.825598 5.1875 -3.24694036 6.75069699 -5.3515625 8.578125 Z " fill="#B2B2B2" transform="translate(274.9375,179.8125)"/>
<path d="M0 0 C3.25 1.8125 3.25 1.8125 5 5 C5.94893346 10.21913404 5.96246461 15.25398621 3.125 19.875 C-1.85579352 25.69525311 -8.67848482 28.1119902 -16.125 28.8125 C-17.7490703 28.89572798 -19.374154 28.96599942 -21 29 C-20.34 31.31 -19.68 33.62 -19 36 C-15.77269804 37.07817935 -14.01873669 36.94858069 -10.875 35.6875 C-9.85019531 35.29111328 -9.85019531 35.29111328 -8.8046875 34.88671875 C-6.81387858 34.02908776 -6.81387858 34.02908776 -5 32 C-2.375 31.875 -2.375 31.875 0 32 C0.375 35.25 0.375 35.25 0 39 C-6.27146771 44.29590607 -12.46602577 44.51184644 -20.375 44.34765625 C-23.68892691 44.02983352 -25.26590168 43.84341216 -27.8125 41.8125 C-32.24322699 36.11585102 -32.79631606 31.08411042 -32 24 C-29.84299228 14.66261761 -23.50018589 6.81324214 -15.6875 1.375 C-10.38608152 -0.60180011 -5.58471678 -0.87014001 0 0 Z M-14.640625 12.0546875 C-17.14880287 15.64397652 -19 18.57294775 -19 23 C-14.07014496 22.55183136 -10.64833828 20.17966006 -7 17 C-4.5705484 13.3558226 -4.83820425 11.28758728 -5 7 C-10.0417082 5.96200125 -11.75121768 8.37590602 -14.640625 12.0546875 Z " fill="#B1B1B1" transform="translate(350,180)"/>
<path d="M0 0 C3.04496724 1.69437693 3.40018429 2.68186371 5 6 C6.05227528 11.35703779 4.90486964 15.37372612 2 20 C0.6875 21.875 0.6875 21.875 -1 23 C-4.24250962 23.4053137 -6.15593839 23.54455588 -8.9375 21.75 C-10 20 -10 20 -9.875 18 C-9 16 -9 16 -7.5 14.5625 C-5.53426922 12.51486377 -5.37331439 10.76252651 -5 8 C-5.66 7.67 -6.32 7.34 -7 7 C-8.68496298 7.96885372 -10.35178756 8.96986723 -12 10 C-12.66 10 -13.32 10 -14 10 C-14.43119141 10.86625 -14.43119141 10.86625 -14.87109375 11.75 C-15.58402315 13.17092503 -16.30441488 14.58815251 -17.03515625 16 C-17.37417969 16.66 -17.71320313 17.32 -18.0625 18 C-18.40410156 18.66 -18.74570312 19.32 -19.09765625 20 C-21.22112821 24.70656989 -21.16433623 28.905577 -21 34 C-20.19791667 36.10416667 -20.19791667 36.10416667 -18.375 36.8125 C-14.70460722 37.10226785 -12.23013168 35.64443067 -9 34 C-8.443125 33.443125 -7.88625 32.88625 -7.3125 32.3125 C-6.879375 31.879375 -6.44625 31.44625 -6 31 C-4.68 31 -3.36 31 -2 31 C-0.90340935 33.69163159 -0.90421391 34.76053477 -2 37.5 C-4.63000287 40.78750359 -6.99950335 42.77009524 -11 44 C-17.93032811 44.7177555 -24.20377471 45.3238389 -30 41 C-33.81045852 35.74419514 -33.61652567 30.22604095 -33 24 C-31.51458816 15.79677965 -27.05591445 9.46427843 -20.77734375 4.1015625 C-14.28425218 -0.39609117 -7.76724126 -1.56189091 0 0 Z " fill="#B1B1B1" transform="translate(391,180)"/>
<path d="M0 0 C3.0107987 2.20019905 3.74100005 4.0783639 4.4375 7.6875 C3.75 11.125 3.75 11.125 1.5625 13.625 C-1.25 15.125 -1.25 15.125 -4.0625 14.875 C-5.1453125 14.50375 -5.1453125 14.50375 -6.25 14.125 C-6.3325 13.01125 -6.415 11.8975 -6.5 10.75 C-6.82873787 7.06746056 -6.82873787 7.06746056 -9.3125 5.6875 C-9.951875 5.501875 -10.59125 5.31625 -11.25 5.125 C-12.24 5.785 -13.23 6.445 -14.25 7.125 C-14.13399872 12.34505765 -12.715715 15.18788678 -9.75 19.5 C-6.56129594 24.29291807 -4.47400415 28.27079601 -5.25 34.125 C-6.94393966 37.78390967 -8.54464515 39.59598386 -11.75 42 C-17.6727906 43.90375412 -24.31539295 44.49421081 -30.0546875 41.81640625 C-32.25 40.125 -32.25 40.125 -33.3125 36.6875 C-33.25 33.125 -33.25 33.125 -31.625 30.625 C-29.25 29.125 -29.25 29.125 -26.5 29.375 C-25.7575 29.6225 -25.015 29.87 -24.25 30.125 C-23.981875 31.094375 -23.71375 32.06375 -23.4375 33.0625 C-23.045625 34.073125 -22.65375 35.08375 -22.25 36.125 C-21.26 36.455 -20.27 36.785 -19.25 37.125 C-18.26 36.63 -18.26 36.63 -17.25 36.125 C-17.50105825 30.22513114 -19.44565298 27.03709516 -22.8125 22.25390625 C-25.45488845 18.34058639 -26.27132422 15.31915631 -26.1875 10.625 C-24.90722357 5.84530134 -22.75031873 2.76565858 -18.51171875 -0.015625 C-13.03755329 -2.09561879 -5.45860442 -2.12279061 0 0 Z " fill="#B1B1B1" transform="translate(460.25,180.875)"/>
<path d="M0 0 C3.3125 0.4375 3.3125 0.4375 4.3125 1.4375 C4.59977578 5.74663667 4.30762373 7.44725253 2.3125 11.4375 C5.6125 11.7675 8.9125 12.0975 12.3125 12.4375 C11.5 14.875 11.5 14.875 10.3125 17.4375 C7.43038698 18.39820434 5.61399956 18.54331883 2.625 18.5 C1.41263672 18.48646484 1.41263672 18.48646484 0.17578125 18.47265625 C-0.43910156 18.46105469 -1.05398438 18.44945312 -1.6875 18.4375 C-1.86925781 19.11554688 -2.05101562 19.79359375 -2.23828125 20.4921875 C-3.51346851 25.21365006 -4.82532005 29.9031579 -6.3125 34.5625 C-7.72883911 39.18970213 -8.29892023 43.6191109 -8.6875 48.4375 C-4.69392372 47.8669891 -2.10965525 46.50880449 1.3125 44.4375 C2.3025 44.4375 3.2925 44.4375 4.3125 44.4375 C3.94416144 50.82203501 3.94416144 50.82203501 0.875 53.8125 C-2.72942789 56.09823476 -4.79895097 56.66390446 -9.0625 56.8125 C-10.01898438 56.86148438 -10.97546875 56.91046875 -11.9609375 56.9609375 C-14.6875 56.4375 -14.6875 56.4375 -17.00390625 54.26953125 C-20.75274653 47.96347741 -19.27415212 40.50879891 -17.59375 33.65625 C-14.52490472 22.11230944 -14.52490472 22.11230944 -12.6875 18.4375 C-14.3375 18.1075 -15.9875 17.7775 -17.6875 17.4375 C-16.8125 13.5625 -16.8125 13.5625 -15.6875 12.4375 C-13.68791636 12.39669217 -11.68704746 12.39495644 -9.6875 12.4375 C-9.31625 11.138125 -9.31625 11.138125 -8.9375 9.8125 C-5.54698785 0.6581172 -5.54698785 0.6581172 0 0 Z " fill="#B2B2B2" transform="translate(420.6875,167.5625)"/>
<path d="M0 0 C1.31677734 0.00580078 1.31677734 0.00580078 2.66015625 0.01171875 C4.9375 0.3125 4.9375 0.3125 6.9375 2.3125 C8.27332431 21.18529981 -1.57911855 45.62843138 -13.0625 60.3125 C-20.86855227 68.27467331 -20.86855227 68.27467331 -26.6875 68.375 C-27.80125 68.354375 -28.915 68.33375 -30.0625 68.3125 C-30.3925 67.3225 -30.7225 66.3325 -31.0625 65.3125 C-30.0625 63.3125 -30.0625 63.3125 -27.7109375 61.94921875 C-15.87863182 54.63692365 -10.96380778 35.25992207 -7.7890625 22.51953125 C-6.51540205 16.89762142 -5.7834331 12.0798827 -6.0625 6.3125 C-6.7225 5.3225 -7.3825 4.3325 -8.0625 3.3125 C-5.58508301 0.21368469 -3.90186952 -0.07470442 0 0 Z " fill="#B2B2B2" transform="translate(306.0625,179.6875)"/>
<path d="M0 0 C0.79148438 -0.02578125 1.58296875 -0.0515625 2.3984375 -0.078125 C5.14284041 0.32631332 5.96748226 1.06579438 7.625 3.25 C8.3125 5.9375 8.3125 5.9375 8.625 8.25 C9.03492188 7.75628906 9.44484375 7.26257813 9.8671875 6.75390625 C10.40601563 6.11324219 10.94484375 5.47257813 11.5 4.8125 C12.03367188 4.17441406 12.56734375 3.53632813 13.1171875 2.87890625 C15.49178368 0.31360416 16.53719865 0.25470364 20.125 0.0625 C23.625 0.25 23.625 0.25 25.625 2.25 C26.08876812 9.55434783 26.08876812 9.55434783 23.625 13.25 C20.52005874 13.56845551 18.60773923 13.24424641 15.625 12.25 C6.1493014 20.88960755 1.2380408 32.49980174 -3.375 44.25 C-9.76575249 44.61174071 -9.76575249 44.61174071 -12.375 43.0625 C-13.80066439 40.47848329 -13.07730834 39.08250033 -12.375 36.25 C-11.7879264 34.38651041 -11.16983908 32.5326148 -10.52734375 30.6875 C-10.16962891 29.64335937 -9.81191406 28.59921875 -9.44335938 27.5234375 C-8.68903567 25.33993745 -7.93121737 23.15764156 -7.16992188 20.9765625 C-6.81349609 19.93242187 -6.45707031 18.88828125 -6.08984375 17.8125 C-5.76105225 16.86503906 -5.43226074 15.91757813 -5.09350586 14.94140625 C-4.36298541 12.20499531 -4.0879925 10.0651482 -4.375 7.25 C-5.035 6.59 -5.695 5.93 -6.375 5.25 C-5.66230985 0.54624499 -4.58586661 0.08904595 0 0 Z M6.625 9.25 C7.625 11.25 7.625 11.25 7.625 11.25 Z " fill="#B1B1B1" transform="translate(225.375,179.75)"/>
<path d="M0 0 C0.78503906 0.00386719 1.57007813 0.00773438 2.37890625 0.01171875 C4.4375 0.3125 4.4375 0.3125 6.4375 2.3125 C7.06461146 6.34393083 6.74360745 7.87652878 4.375 11.25 C1.4375 13.3125 1.4375 13.3125 -2.25 13.3125 C-5.5625 12.3125 -5.5625 12.3125 -7.5625 9.3125 C-8.11038187 4.05283405 -8.11038187 4.05283405 -6.328125 1.64453125 C-4.08065257 -0.05101764 -2.78898657 -0.05973118 0 0 Z " fill="#B2B2B2" transform="translate(310.5625,157.6875)"/>
</svg>
