<?xml version="1.0" encoding="UTF-8"?>
<svg version="1.1" xmlns="http://www.w3.org/2000/svg" width="500" height="400">
<path d="M0 0 C1.98 0.99 1.98 0.99 4 2 C1.42486227 12.81845573 -1.56786743 23.42227995 -5 34 C-3.89591797 32.55367187 -3.89591797 32.55367187 -2.76953125 31.078125 C-1.78416606 29.80184247 -0.79847149 28.5258142 0.1875 27.25 C0.91163086 26.29867187 0.91163086 26.29867187 1.65039062 25.328125 C4.45841433 21.70973204 7.16291024 18.59262822 11 16 C13.8125 15.75 13.8125 15.75 16 16 C15.52258527 22.68380626 14.12716983 28.88171319 12.37207031 35.32617188 C11.40288542 38.97172973 10.77311587 42.22347712 11 46 C14.92535583 42.41187405 17.27001574 39.00298193 19.625 34.25 C21.3515625 30.765625 21.3515625 30.765625 23 28 C23.99 27.67 24.98 27.34 26 27 C25.44000471 31.52719083 24.25581488 35.00441385 22.1875 39.0625 C21.68605469 40.06410156 21.18460938 41.06570312 20.66796875 42.09765625 C16.38651502 49.54758627 16.38651502 49.54758627 12.96484375 50.6640625 C9.61580508 50.59953382 7.52314992 50.47410461 5 48.1875 C2.91850726 41.5527419 3.76800451 34.74616887 5 28 C-1.61108752 37.84994884 -6.47378399 47.67899071 -10 59 C-12.375 59.625 -12.375 59.625 -15 60 C-15.66 59.34 -16.32 58.68 -17 58 C-17.763125 58.78375 -18.52625 59.5675 -19.3125 60.375 C-22.44288789 63.43258817 -24.05881887 64.88021331 -28.4375 65.4375 C-32 65 -32 65 -34.22265625 62.47265625 C-34.80917969 61.65667969 -35.39570313 60.84070313 -36 60 C-37.33804688 61.26457031 -37.33804688 61.26457031 -38.703125 62.5546875 C-39.88518983 63.6617006 -41.06749409 64.76845807 -42.25 65.875 C-42.83652344 66.43058594 -43.42304688 66.98617187 -44.02734375 67.55859375 C-44.60097656 68.09355469 -45.17460937 68.62851563 -45.765625 69.1796875 C-46.55114746 69.91807861 -46.55114746 69.91807861 -47.35253906 70.67138672 C-51.03488901 73.64105898 -54.253529 74.48248275 -59.03515625 74.40234375 C-62.30732782 73.73229669 -63.91004035 71.45877606 -66 69 C-66.66 69 -67.32 69 -68 69 C-69.85109399 71.7264882 -71.4813388 74.55629126 -73.1484375 77.3984375 C-75.00934562 80.01313119 -76.00122917 81.00040972 -79 82 C-81.5625 81.9375 -81.5625 81.9375 -84 81 C-87.5155007 77.24205097 -87.31775543 73.38803125 -87.171875 68.515625 C-86.95196328 65.29691704 -86.55273354 62.17821784 -86 59 C-92.61108752 68.84994884 -97.47378399 78.67899071 -101 90 C-103.475 90.495 -103.475 90.495 -106 91 C-106.33 89.35 -106.66 87.7 -107 86 C-109.18366029 87.59266966 -111.26074733 89.22793219 -113.296875 91.0078125 C-118.49805041 95.49672504 -121.97400136 98.46839991 -129 98 C-132.19637332 96.28342914 -134.44887874 94.55112126 -137 92 C-137.99 92 -138.98 92 -140 92 C-139.50087815 86.57591861 -138.03932933 82.42489536 -135.47265625 77.60546875 C-134.94918861 76.59532463 -134.94918861 76.59532463 -134.41514587 75.56477356 C-133.68110891 74.1530363 -132.94214231 72.74385224 -132.19848633 71.3371582 C-131.05936283 69.18156345 -129.93574149 67.01843267 -128.81445312 64.85351562 C-128.09723916 63.47870462 -127.37917012 62.10433928 -126.66015625 60.73046875 C-126.32363541 60.08466354 -125.98711456 59.43885834 -125.64039612 58.77348328 C-124.27200396 56.19215804 -123.07868684 54.07868684 -121 52 C-118.375 51.875 -118.375 51.875 -116 52 C-115.06576355 55.01031744 -114.95550089 55.86650268 -116 59 C-116.32010938 65.4398476 -115.97977362 71.63147148 -115 78 C-114.91927149 80.67353824 -114.95305853 83.32433611 -115 86 C-104.93714437 79.0464537 -103.40427457 68.38727846 -101 57 C-96.71764706 36.71764706 -96.71764706 36.71764706 -92 32 C-89.375 32.375 -89.375 32.375 -87 33 C-89.67533216 44.10487036 -92.69796171 55.0653814 -96 66 C-95.49210937 65.28714844 -94.98421875 64.57429688 -94.4609375 63.83984375 C-92.33044241 60.8755032 -90.17326111 57.93311508 -88 55 C-87.18015625 53.88431641 -87.18015625 53.88431641 -86.34375 52.74609375 C-83.85218592 49.57200015 -82.64904899 48.19593932 -78.6875 47 C-77.800625 47 -76.91375 47 -76 47 C-75.67 47.33 -75.34 47.66 -75 48 C-75.04163814 52.66347201 -75.8932084 57.01145811 -77.5 61.375 C-79.35674879 66.49238082 -79.70703973 71.59538814 -80 77 C-74.30809811 73.49101389 -72.49651959 68.36888016 -69.875 62.5 C-66.14532246 54.45744268 -62.32019753 46.49894915 -58.125 38.6875 C-57.68526855 37.84058594 -57.24553711 36.99367187 -56.79248047 36.12109375 C-53.68017684 30.40514881 -53.68017684 30.40514881 -50.3046875 28.39453125 C-48 28 -48 28 -46 29 C-46.09539062 29.79019531 -46.19078125 30.58039063 -46.2890625 31.39453125 C-47.31498645 41.83271097 -46.33704841 51.6351123 -45 62 C-39.82408335 58.03738517 -39.82408335 58.03738517 -36.8125 52.375 C-36.50183594 51.51390625 -36.19117188 50.6528125 -35.87109375 49.765625 C-34.69205449 46.02230754 -33.6549028 42.25449011 -32.7109375 38.4453125 C-32.01917357 36.06594865 -31.32909802 34.09262242 -30 32 C-27 31.125 -27 31.125 -24 31 C-23.01 31.99 -23.01 31.99 -22 33 C-22.18175781 33.52843506 -22.36351562 34.05687012 -22.55078125 34.60131836 C-23.38134069 37.04215152 -24.19069699 39.48954068 -25 41.9375 C-25.28617187 42.76830078 -25.57234375 43.59910156 -25.8671875 44.45507812 C-27.74394748 50.19706998 -28.29249051 54.96128963 -28 61 C-24.44770694 59.35380421 -22.7723721 57.79030128 -20.5 54.5625 C-19.9328125 53.78003906 -19.365625 52.99757812 -18.78125 52.19140625 C-13.5993726 42.90720923 -11.56741343 32.51239082 -9.2890625 22.22851562 C-5.26968989 4.69238189 -5.26968989 4.69238189 0 0 Z M-55 41 C-56.32002556 43.55886504 -57.63113782 46.12167068 -58.9375 48.6875 C-59.31068359 49.40873047 -59.68386719 50.12996094 -60.06835938 50.87304688 C-63.53350547 57.24009208 -63.53350547 57.24009208 -63.3125 64.1875 C-61.69760622 66.41759141 -60.62811646 67.17402054 -58 68 C-54.65022937 67.68097423 -53.40820361 67.40820361 -51 65 C-50.25545941 56.85385002 -50.96079627 48.90191445 -53 41 C-53.66 41 -54.32 41 -55 41 Z M-124 64 C-125.32532061 66.51478831 -126.63520231 69.03581987 -127.9375 71.5625 C-128.31068359 72.26697266 -128.68386719 72.97144531 -129.06835938 73.69726562 C-131.33369724 78.12589911 -132.75961766 81.93931926 -133 87 C-131.58333333 89.58333333 -131.58333333 89.58333333 -129 91 C-125.95746492 91.58345476 -125.95746492 91.58345476 -123 91 C-120.95301408 89.44910714 -120.11052509 88.55154188 -119.6015625 86.01171875 C-119.67791557 78.44003933 -121.2227524 71.34172519 -123 64 C-123.33 64 -123.66 64 -124 64 Z " fill="#B3B3B3" transform="translate(348,129)"/>
<path d="M0 0 C2.125 0.375 2.125 0.375 4 1 C5.36630897 7.84639606 4.78349958 12.2528413 2.125 18.640625 C-0.28126886 25.82601119 -0.97596589 33.51369003 -2 41 C-1.38511719 40.7834375 -0.77023438 40.566875 -0.13671875 40.34375 C0.67152344 40.0653125 1.47976562 39.786875 2.3125 39.5 C3.11300781 39.2215625 3.91351563 38.943125 4.73828125 38.65625 C7 38 7 38 10 38 C9.67 38.99 9.34 39.98 9 41 C7.20676442 41.6591508 5.38963212 42.25414363 3.5625 42.8125 C0.49607612 43.9738597 0.49607612 43.9738597 -2 46 C-3.71830807 50.62797639 -3.90556074 55.09471354 -4 60 C-4.05285156 60.81855469 -4.10570312 61.63710937 -4.16015625 62.48046875 C-4.34725843 66.6862004 -3.55579303 70.11051742 -2 74 C-1.34 74 -0.68 74 0 74 C0.99 72.515 0.99 72.515 2 71 C2.66 71 3.32 71 4 71 C3.67842796 73.97454134 3.37860258 75.59335278 1.3125 77.8125 C-1.74635549 79.38326363 -3.61063512 79.57691317 -7 79 C-10.47175429 74.69023605 -11.1305463 70.40959345 -11.09765625 65.015625 C-11.09282227 63.61376953 -11.09282227 63.61376953 -11.08789062 62.18359375 C-11.07532227 60.73146484 -11.07532227 60.73146484 -11.0625 59.25 C-11.05798828 58.26644531 -11.05347656 57.28289062 -11.04882812 56.26953125 C-11.03706483 53.84629209 -11.02062684 51.42317727 -11 49 C-17.35721597 51.04540282 -20.84982581 53.15759641 -23.93920898 59.14160156 C-24.30989502 59.91987305 -24.68058105 60.69814453 -25.0625 61.5 C-25.90513801 63.13213228 -26.75150827 64.76234296 -27.6015625 66.390625 C-28.00793945 67.18275391 -28.41431641 67.97488281 -28.83300781 68.79101562 C-36.45804217 83.22434426 -48.56633701 101.6574236 -64.546875 107.34375 C-69.49742816 108.6681018 -73.35492516 108.60108504 -78.25 106.8125 C-83.3400166 103.45771633 -85.40260721 99.78460112 -87 94 C-88.86255539 75.21759932 -83.25801392 60.31352444 -72.0234375 45.37109375 C-66.82079265 39.08024629 -60.93231358 34.47650771 -52.75 33 C-48.72232872 33 -47.08401463 33.4767153 -44 36 C-42.45088179 39.09823641 -42.77435603 42.35233391 -42.75 45.75 C-42.729375 46.45382813 -42.70875 47.15765625 -42.6875 47.8828125 C-42.65191602 52.66885829 -43.48660602 55.79337218 -46 60 C-46.99 60 -47.98 60 -49 60 C-48.835 59.2575 -48.67 58.515 -48.5 57.75 C-48.05681403 54.42610521 -47.79802681 51.22355308 -47.6875 47.875 C-47.65011719 46.86179688 -47.61273438 45.84859375 -47.57421875 44.8046875 C-48.10925753 41.28030361 -49.20192965 40.13790856 -52 38 C-56.22466384 37.71195474 -58.72997617 39.28122394 -61.9375 41.8125 C-71.87039692 51.11865581 -77.74865642 65.8758802 -78.203125 79.3984375 C-78.22425612 81.05723066 -78.2397282 82.71610405 -78.25 84.375 C-78.270625 85.2 -78.29125 86.025 -78.3125 86.875 C-78.34736445 92.36615095 -77.59403734 96.13774644 -75 101 C-73 103.33333333 -73 103.33333333 -70 104 C-61.92501595 103.2644569 -56.24924742 97.69616477 -51 92 C-41.69498322 80.77032991 -34.97782513 67.74054054 -28 55 C-29.15048828 55.73669922 -29.15048828 55.73669922 -30.32421875 56.48828125 C-33.21506708 58.12150505 -34.7461909 58.27889792 -38 58 C-38 55.6875 -38 55.6875 -37 53 C-33.06259916 50.72771493 -28.46037187 49.6969331 -24 49 C-23.7328418 48.14422363 -23.46568359 47.28844727 -23.19042969 46.40673828 C-21.98579374 42.95934493 -20.54842699 39.77598618 -18.953125 36.4921875 C-18.65944031 35.88545197 -18.36575562 35.27871643 -18.06317139 34.65359497 C-17.12885788 32.72571955 -16.18944544 30.80037891 -15.25 28.875 C-14.63509742 27.60692559 -14.02051167 26.3386975 -13.40625 25.0703125 C-11.90468692 21.97365127 -10.39416653 18.88149072 -8.87817383 15.79187012 C-8.00882813 14.01801335 -7.14403815 12.24192625 -6.27929688 10.46582031 C-5.74884766 9.38655273 -5.21839844 8.30728516 -4.671875 7.1953125 C-4.20362305 6.23898926 -3.73537109 5.28266602 -3.25292969 4.29736328 C-2 2 -2 2 0 0 Z M-8 26 C-9.70043413 29.11812941 -11.38309295 32.24550253 -13.0625 35.375 C-13.54783203 36.26445312 -14.03316406 37.15390625 -14.53320312 38.0703125 C-14.98759766 38.92109375 -15.44199219 39.771875 -15.91015625 40.6484375 C-16.33433838 41.43395996 -16.75852051 42.21948242 -17.19555664 43.02880859 C-17.5937561 44.00454834 -17.5937561 44.00454834 -18 45 C-17.67 45.66 -17.34 46.32 -17 47 C-13.07886246 46.27349458 -13.07886246 46.27349458 -10 44 C-7.85710887 38.17334285 -6.23969422 32.06759536 -8 26 Z " fill="#B3B3B3" transform="translate(201,162)"/>
<path d="M0 0 C2.64 0 5.28 0 8 0 C8.125 2.375 8.125 2.375 8 5 C6 7 6 7 3.5 7.25 C1 7 1 7 -1 5 C-0.625 2.375 -0.625 2.375 0 0 Z " fill="#B3B3B3" transform="translate(322,148)"/>
</svg>
