<?xml version="1.0" encoding="UTF-8"?>
<svg version="1.1" xmlns="http://www.w3.org/2000/svg" width="512" height="512">
<path d="M0 0 C9.9 0 19.8 0 30 0 C30.33 57.75 30.66 115.5 31 175 C43.25739986 145.94229384 43.25739986 145.94229384 55.35461426 116.81951904 C56.91485128 113.02726895 58.47862218 109.23647822 60.04208374 105.44555664 C60.84937655 103.48809631 61.65652788 101.53057762 62.46353149 99.57299805 C67.23724237 87.99457974 72.02873028 76.42351694 76.83398438 64.8581543 C77.52083986 63.20491808 78.20768885 61.55167916 78.89453125 59.8984375 C79.2313089 59.08794449 79.56808655 58.27745148 79.91506958 57.44239807 C82.03669208 52.33246187 84.14588903 47.21756334 86.24697876 42.09915161 C87.64110974 38.70507717 89.04032331 35.31311134 90.44030762 31.92144775 C91.10020161 30.31905001 91.75771011 28.71566761 92.41271973 27.11126709 C93.30944989 24.91537432 94.21428119 22.72299426 95.12109375 20.53125 C95.51671761 19.55328964 95.51671761 19.55328964 95.92033386 18.55557251 C97.77210358 14.11394821 97.77210358 14.11394821 100 13 C102.06425695 13.68380141 104.09371526 14.47355448 106.1015625 15.30859375 C107.91914062 16.05786133 107.91914062 16.05786133 109.7734375 16.82226562 C111.05736135 17.36051088 112.34121462 17.89892455 113.625 18.4375 C114.91637291 18.97271455 116.20803626 19.50722888 117.5 20.04101562 C120.66959907 21.35379733 123.83602565 22.67373216 127 24 C126.38387873 29.13988094 124.7860668 33.39688951 122.78125 38.11328125 C122.2872319 39.29710892 122.2872319 39.29710892 121.78323364 40.50485229 C120.69464439 43.10988176 119.59724867 45.71110752 118.5 48.3125 C117.72767336 50.15702357 116.95603803 52.00183674 116.18505859 53.84692383 C114.58408506 57.67675831 112.98014955 61.50533145 111.37402344 65.33300781 C108.11316902 73.10965453 104.88534591 80.8999385 101.65899658 88.69094849 C100.61750632 91.20559325 99.57522459 93.71990859 98.53271484 96.23413086 C80.14522057 140.56731048 80.14522057 140.56731048 62 185 C65.58532272 182.22285495 68.83885221 179.28484398 72.04304504 176.07720947 C72.52509279 175.59601615 73.00714054 175.11482282 73.5037958 174.61904788 C75.10753281 173.01694911 76.70768537 171.411319 78.30786133 169.80566406 C79.46107865 168.65216448 80.61451659 167.49888542 81.76815796 166.34580994 C84.89190599 163.22234838 88.01256486 160.09581692 91.1326735 156.96872044 C94.39669003 153.6984455 97.66354554 150.43100909 100.93009949 147.16326904 C107.11202665 140.9782359 113.29140062 134.79065842 119.46985883 128.60216022 C126.50534914 121.555486 133.5436849 114.51165681 140.58225977 107.46806383 C155.0580057 92.98187013 169.5301789 78.49211167 184 64 C187.52344644 65.6586188 189.79901878 67.56657308 192.546875 70.3515625 C193.39121094 71.20234375 194.23554688 72.053125 195.10546875 72.9296875 C195.97816406 73.81914063 196.85085938 74.70859375 197.75 75.625 C198.63816406 76.5221875 199.52632813 77.419375 200.44140625 78.34375 C202.63216969 80.55807004 204.81812763 82.77692435 207 85 C205.43120659 88.77548454 203.08098268 91.16553294 200.2038269 94.03668213 C199.71209177 94.53012611 199.22035664 95.02357009 198.71372044 95.53196692 C197.06630328 97.18267592 195.41184425 98.8261392 193.75732422 100.46972656 C192.57434867 101.65213793 191.39181342 102.83498994 190.20968628 104.01824951 C186.99949432 107.22901572 183.78316948 110.43357446 180.56572104 113.63706684 C177.20423474 116.98605788 173.84840441 120.34070655 170.49197388 123.69476318 C164.13533185 130.04518691 157.77360836 136.3904948 151.41005051 142.73398757 C144.16557328 149.95611674 136.92676845 157.18391994 129.68843818 164.41220903 C114.79860209 179.28113518 99.90164503 194.14290942 85 209 C86.41221902 208.53685609 87.82377606 208.0716934 89.23506165 207.60571289 C90.02119496 207.34689835 90.80732828 207.0880838 91.61728382 206.82142639 C95.37215213 205.5269592 99.01405401 203.9903701 102.66796875 202.4375 C103.89198647 201.92243141 103.89198647 201.92243141 105.14073181 201.3969574 C106.90212377 200.65549876 108.66291481 199.91261125 110.42315674 199.16842651 C115.22821045 197.13743701 120.03816135 195.11810094 124.84765625 193.09765625 C125.84770691 192.67726578 126.84775757 192.25687531 127.87811279 191.82374573 C138.60854901 187.31674121 149.36508981 182.87357323 160.125 178.4375 C162.04363629 177.64611746 163.96225608 176.85469494 165.88085938 176.06323242 C168.74528381 174.88161361 171.60971299 173.70000639 174.47421265 172.51856995 C183.84350326 168.65364337 193.20831826 164.77794864 202.57098389 160.89700317 C204.27324579 160.19144343 205.97559315 159.4860898 207.67803955 158.78097534 C209.27370501 158.12005801 210.86924762 157.45884399 212.46466064 156.7973175 C214.00011783 156.16073693 215.53587798 155.52488656 217.07196045 154.88981628 C221.14548222 153.20170271 225.2049806 151.48559844 229.25244141 149.73583984 C230.11766922 149.36416183 230.98289703 148.99248383 231.87434387 148.60954285 C233.53573535 147.89468478 235.19465009 147.17403382 236.85063171 146.44673157 C237.59770889 146.12617294 238.34478607 145.80561432 239.11450195 145.4753418 C239.769814 145.18991013 240.42512604 144.90447845 241.10029602 144.61039734 C243 144 243 144 247 144 C252.445 157.365 252.445 157.365 258 171 C254.66938536 174.33061464 251.45177478 175.69426368 247.1796875 177.4140625 C246.38599762 177.74066864 245.59230774 178.06727478 244.77456665 178.40377808 C242.14415531 179.4844366 239.5095946 180.55458525 236.875 181.625 C235.01985622 182.38527255 233.16504346 183.14635326 231.31054688 183.90820312 C227.45407835 185.49175077 223.59620221 187.0717953 219.73730469 188.64941406 C211.82083242 191.88889376 203.92187469 195.17039514 196.02285767 198.45214844 C191.77257041 200.21747599 187.52099463 201.97969478 183.26953125 203.7421875 C182.42474716 204.09247009 181.57996307 204.44275269 180.70957947 204.8036499 C175.53617923 206.9487521 170.36247743 209.09312549 165.18856812 211.23699951 C161.69155713 212.6860627 158.19465277 214.13538308 154.69775391 215.5847168 C153.09542948 216.24874173 151.49305799 216.91265312 149.890625 217.57641602 C131.91512877 225.02234108 113.96002912 232.51665453 96 240 C182.625 240.495 182.625 240.495 271 241 C271 250.9 271 260.8 271 271 C184.375 271.495 184.375 271.495 96 272 C127.7538776 285.31569399 127.7538776 285.31569399 159.55905151 298.50604248 C164.26310762 300.44280601 168.96534617 302.38397776 173.66796875 304.32421875 C174.61352127 304.71422058 175.55907379 305.10422241 176.53327942 305.50604248 C190.64898731 311.32877673 204.75598218 317.17248732 218.85552979 323.03424072 C223.60393555 325.00759631 228.35567721 326.97262141 233.11036682 328.93078613 C236.05432866 330.14447527 238.99606666 331.36348408 241.93728638 332.58380127 C243.29931797 333.14750756 244.66231989 333.7088757 246.02633667 334.26776123 C247.87425274 335.02523318 249.71849475 335.79165035 251.5625 336.55859375 C252.59503906 336.98454834 253.62757813 337.41050293 254.69140625 337.84936523 C257 339 257 339 258 341 C257.31619859 343.06425695 256.52644552 345.09371526 255.69140625 347.1015625 C254.94213867 348.91914062 254.94213867 348.91914062 254.17773438 350.7734375 C253.63948912 352.05736135 253.10107545 353.34121462 252.5625 354.625 C252.02728545 355.91637291 251.49277112 357.20803626 250.95898438 358.5 C249.64620267 361.66959907 248.32626784 364.83602565 247 368 C241.86011784 367.38387859 237.60311178 365.7860633 232.88671875 363.78125 C232.09727371 363.45181396 231.30782867 363.12237793 230.49446106 362.78295898 C227.88965528 361.6944731 225.28865521 360.59717758 222.6875 359.5 C220.84663672 358.72914261 219.00548578 357.95897184 217.1640625 357.18945312 C213.33790855 355.5899008 209.51301082 353.98739749 205.68896484 352.3828125 C197.81074436 349.07967353 189.91767259 345.81250678 182.02450562 342.54528809 C177.77859475 340.78724088 173.53392196 339.02620893 169.2890625 337.265625 C163.21213803 334.74565305 157.13462393 332.22711003 151.05647278 329.71009827 C129.68227777 320.85879598 108.32381207 311.97208109 87 303 C86.67 303.33 86.34 303.66 86 304 C125.93 343.93 165.86 383.86 207 425 C205.1172549 428.7654902 203.58807351 430.64643414 200.6484375 433.546875 C199.79765625 434.39121094 198.946875 435.23554688 198.0703125 436.10546875 C197.18085938 436.97816406 196.29140625 437.85085938 195.375 438.75 C194.4778125 439.63816406 193.580625 440.52632813 192.65625 441.44140625 C190.44192996 443.63216969 188.22307565 445.81812763 186 448 C182.22451546 446.43120659 179.83446706 444.08098268 176.96331787 441.2038269 C176.46987389 440.71209177 175.97642991 440.22035664 175.46803308 439.71372044 C173.81732408 438.06630328 172.1738608 436.41184425 170.53027344 434.75732422 C169.34786207 433.57434867 168.16501006 432.39181342 166.98175049 431.20968628 C163.77098428 427.99949432 160.56642554 424.78316948 157.36293316 421.56572104 C154.01394212 418.20423474 150.65929345 414.84840441 147.30523682 411.49197388 C140.95481309 405.13533185 134.6095052 398.77360836 128.26601243 392.41005051 C121.04388326 385.16557328 113.81608006 377.92676845 106.58779097 370.68843818 C91.71886482 355.79860209 76.85709058 340.90164503 62 326 C62.93183983 328.50431437 63.86545351 331.00794447 64.80004883 333.51123047 C65.05941475 334.2088298 65.31878067 334.90642914 65.58600616 335.62516785 C67.8809498 341.76520994 70.34589267 347.82648508 72.89404297 353.8659668 C74.82816711 358.45855724 76.75263562 363.05514637 78.67578125 367.65234375 C79.02298218 368.4816188 79.37018311 369.31089386 79.72790527 370.16529846 C83.97860824 380.32488779 88.17534631 390.50673143 92.375 400.6875 C93.9828135 404.58344043 95.59096063 408.47924309 97.19921875 412.375 C97.59692474 413.33841812 97.99463074 414.30183624 98.40438843 415.29444885 C102.29812272 424.72513161 106.19948448 434.15264579 110.10601807 443.57803345 C110.81027684 445.27731261 111.51434735 446.97666981 112.21820068 448.67611694 C112.87925315 450.27210375 113.54060453 451.86796679 114.20227051 453.46369934 C114.83900699 454.99951119 115.4750103 456.53562724 116.11022949 458.07206726 C117.79832593 462.14555421 119.51441694 466.20501615 121.26416016 470.25244141 C121.82167717 471.55028313 121.82167717 471.55028313 122.39045715 472.87434387 C123.10531522 474.53573535 123.82596618 476.19465009 124.55326843 477.85063171 C124.87382706 478.59770889 125.19438568 479.34478607 125.5246582 480.11450195 C125.95280571 481.09747002 125.95280571 481.09747002 126.38960266 482.10029602 C127 484 127 484 127 488 C118.09 491.63 109.18 495.26 100 499 C96.66938632 495.66938632 95.30573684 492.45177516 93.5859375 488.1796875 C93.09616425 486.98949257 93.09616425 486.98949257 92.59649658 485.7752533 C91.51573921 483.14461597 90.4455004 480.50982598 89.375 477.875 C88.61326029 476.01619508 87.85071454 474.15772029 87.08740234 472.29956055 C85.50241579 468.43941939 83.92091497 464.57787738 82.34179688 460.71533203 C79.14382643 452.90064977 75.90244294 445.1040855 72.66156006 437.30712891 C67.81349724 425.63957762 62.98297467 413.9647741 58.1640625 402.28515625 C57.75398956 401.29145523 57.34391663 400.29775421 56.92141724 399.27394104 C54.95761951 394.51491709 52.99473248 389.75552186 51.03369141 384.99536133 C44.42249538 368.96793117 37.70529416 352.98954762 31 337 C30.67 394.75 30.34 452.5 30 512 C20.1 512 10.2 512 0 512 C-0.33 454.25 -0.66 396.5 -1 337 C-13.19895313 365.91614475 -13.19895313 365.91614475 -25.24090576 394.89620972 C-26.38530306 397.67689896 -27.53160343 400.45679853 -28.67822266 403.23657227 C-30.30291833 407.17583006 -31.92694789 411.11536122 -33.55029297 415.05517578 C-39.59663979 429.72914676 -45.64866709 444.40076559 -51.71810913 459.06520081 C-53.83384448 464.17750012 -55.94436743 469.29189783 -58.04998779 474.40837097 C-59.26854972 477.36543495 -60.49263421 480.32018557 -61.71856689 483.27420044 C-62.27542549 484.61914666 -62.82996099 485.9650574 -63.38201904 487.3119812 C-64.1247864 489.12330068 -64.87656211 490.93091856 -65.62890625 492.73828125 C-66.04213135 493.73899658 -66.45535645 494.73971191 -66.88110352 495.77075195 C-68 498 -68 498 -70 499 C-72.06425695 498.31619859 -74.09371526 497.52644552 -76.1015625 496.69140625 C-77.31328125 496.19189453 -78.525 495.69238281 -79.7734375 495.17773438 C-81.05736135 494.63948912 -82.34121462 494.10107545 -83.625 493.5625 C-84.91637291 493.02728545 -86.20803626 492.49277112 -87.5 491.95898438 C-90.66959907 490.64620267 -93.83602565 489.32626784 -97 488 C-96.38387859 482.86011784 -94.7860633 478.60311178 -92.78125 473.88671875 C-92.45181396 473.09727371 -92.12237793 472.30782867 -91.78295898 471.49446106 C-90.6944731 468.88965528 -89.59717758 466.28865521 -88.5 463.6875 C-87.72914261 461.84663672 -86.95897184 460.00548578 -86.18945312 458.1640625 C-84.5899008 454.33790855 -82.98739749 450.51301082 -81.3828125 446.68896484 C-78.07970657 438.81082318 -74.81250793 430.91785449 -71.54528809 423.02478027 C-69.78691171 418.77761239 -68.02626336 414.53138682 -66.265625 410.28515625 C-65.91574524 409.44121307 -65.56586548 408.5972699 -65.2053833 407.72775269 C-63.04256044 402.51160226 -60.87720221 397.29651124 -58.71009827 392.08213806 C-49.71018921 370.42668782 -40.78196641 348.74482669 -32 327 C-35.58532272 329.77714505 -38.83885221 332.71515602 -42.04304504 335.92279053 C-42.52509279 336.40398385 -43.00714054 336.88517718 -43.5037958 337.38095212 C-45.10753281 338.98305089 -46.70768537 340.588681 -48.30786133 342.19433594 C-49.46107865 343.34783552 -50.61451659 344.50111458 -51.76815796 345.65419006 C-54.89190599 348.77765162 -58.01256486 351.90418308 -61.1326735 355.03127956 C-64.39669003 358.3015545 -67.66354554 361.56899091 -70.93009949 364.83673096 C-77.11202665 371.0217641 -83.29140062 377.20934158 -89.46985883 383.39783978 C-96.50534914 390.444514 -103.5436849 397.48834319 -110.58225977 404.53193617 C-125.0580057 419.01812987 -139.5301789 433.50788833 -154 448 C-157.52344644 446.3413812 -159.79901878 444.43342692 -162.546875 441.6484375 C-163.81337891 440.37226562 -163.81337891 440.37226562 -165.10546875 439.0703125 C-165.97816406 438.18085938 -166.85085937 437.29140625 -167.75 436.375 C-168.63816406 435.4778125 -169.52632813 434.580625 -170.44140625 433.65625 C-172.63216969 431.44192996 -174.81812763 429.22307565 -177 427 C-175.43120659 423.22451546 -173.08098268 420.83446706 -170.2038269 417.96331787 C-169.71209177 417.46987389 -169.22035664 416.97642991 -168.71372044 416.46803308 C-167.06630328 414.81732408 -165.41184425 413.1738608 -163.75732422 411.53027344 C-162.57434867 410.34786207 -161.39181342 409.16501006 -160.20968628 407.98175049 C-156.99949432 404.77098428 -153.78316948 401.56642554 -150.56572104 398.36293316 C-147.20423474 395.01394212 -143.84840441 391.65929345 -140.49197388 388.30523682 C-134.13533185 381.95481309 -127.77360836 375.6095052 -121.41005051 369.26601243 C-114.16557328 362.04388326 -106.92676845 354.81608006 -99.68843818 347.58779097 C-84.79860209 332.71886482 -69.90164503 317.85709058 -55 303 C-57.56422491 303.95824086 -60.12814993 304.91727111 -62.69190979 305.87675476 C-63.41373145 306.14640407 -64.1355531 306.41605338 -64.87924814 306.69387388 C-69.9890428 308.60716899 -75.0579723 310.59656657 -80.08984375 312.70703125 C-81.25278709 313.1905732 -81.25278709 313.1905732 -82.43922424 313.68388367 C-84.93972001 314.7242067 -87.43860107 315.76834793 -89.9375 316.8125 C-91.73294951 317.56019224 -93.52852533 318.30758123 -95.32421875 319.0546875 C-99.04068768 320.60121295 -102.75661964 322.14901806 -106.47216797 323.69775391 C-114.29997352 326.95941099 -122.13442101 330.20502764 -129.96871948 333.4510498 C-133.35092236 334.85261804 -136.7327484 336.25509424 -140.11457825 337.65756226 C-147.15907823 340.57894507 -154.20408147 343.49910898 -161.24981689 346.41751099 C-164.91202045 347.93447705 -168.57405777 349.45184418 -172.23608398 350.96923828 C-173.954589 351.68118809 -175.67317227 352.39294905 -177.3918457 353.10449219 C-179.01043233 353.7746087 -180.62890339 354.44500443 -182.24725342 355.11569214 C-183.81240032 355.76419882 -185.37786492 356.41193933 -186.94366455 357.05886841 C-191.06747152 358.76659319 -195.1773149 360.50201954 -199.27441406 362.27294922 C-200.13986847 362.64471786 -201.00532288 363.01648651 -201.89700317 363.39952087 C-203.55610884 364.11345707 -205.21273585 364.83319027 -206.86642456 365.55958557 C-207.61191559 365.87950974 -208.35740662 366.1994339 -209.12548828 366.52905273 C-209.77881134 366.81368881 -210.4321344 367.09832489 -211.10525513 367.3915863 C-213 368 -213 368 -217 368 C-220.63 359.09 -224.26 350.18 -228 341 C-224.70814185 337.70814185 -221.5751894 336.35520179 -217.35546875 334.65625 C-216.57544998 334.3351123 -215.79543121 334.01397461 -214.99177551 333.68310547 C-212.39315211 332.61509222 -209.79034508 331.55767825 -207.1875 330.5 C-205.34538879 329.74490702 -203.50359781 328.98903238 -201.66210938 328.23242188 C-197.76752619 326.6332435 -193.87139714 325.0379166 -189.97412109 323.4453125 C-181.26578734 319.8843036 -172.57296076 316.28579102 -163.87884521 312.69024658 C-160.01815369 311.09405973 -156.1566837 309.4997608 -152.29522705 307.90542603 C-141.22288567 303.33359116 -130.15277959 298.75637518 -119.08618164 294.1706543 C-117.46681054 293.49968918 -115.84735206 292.82893489 -114.2277832 292.15844727 C-98.12899012 285.49298815 -82.06871005 278.73849131 -66 272 C-123.75 271.67 -181.5 271.34 -241 271 C-241 261.1 -241 251.2 -241 241 C-183.25 240.67 -125.5 240.34 -66 240 C-95.05770616 227.74260014 -95.05770616 227.74260014 -124.18048096 215.64538574 C-127.97273105 214.08514872 -131.76352178 212.52137782 -135.55444336 210.95791626 C-137.51190369 210.15062345 -139.46942238 209.34347212 -141.42700195 208.53646851 C-153.00542026 203.76275763 -164.57648306 198.97126972 -176.1418457 194.16601562 C-177.79508192 193.47916014 -179.44832084 192.79231115 -181.1015625 192.10546875 C-181.91205551 191.7686911 -182.72254852 191.43191345 -183.55760193 191.08493042 C-188.66753813 188.96330792 -193.78243666 186.85411097 -198.90084839 184.75302124 C-202.29492283 183.35889026 -205.68688866 181.95967669 -209.07855225 180.55969238 C-210.68094999 179.89979839 -212.28433239 179.24228989 -213.88873291 178.58728027 C-216.08462568 177.69055011 -218.27700574 176.78571881 -220.46875 175.87890625 C-221.44671036 175.48328239 -221.44671036 175.48328239 -222.44442749 175.07966614 C-226.88605179 173.22789642 -226.88605179 173.22789642 -228 171 C-227.31619859 168.93574305 -226.52644552 166.90628474 -225.69140625 164.8984375 C-225.19189453 163.68671875 -224.69238281 162.475 -224.17773438 161.2265625 C-223.63948912 159.94263865 -223.10107545 158.65878538 -222.5625 157.375 C-222.02728545 156.08362709 -221.49277112 154.79196374 -220.95898438 153.5 C-219.64620267 150.33040093 -218.32626784 147.16397435 -217 144 C-211.86011784 144.61612141 -207.60311178 146.2139367 -202.88671875 148.21875 C-201.70255119 148.71290405 -201.70255119 148.71290405 -200.49446106 149.21704102 C-197.88965528 150.3055269 -195.28865521 151.40282242 -192.6875 152.5 C-190.84663672 153.27085739 -189.00548578 154.04102816 -187.1640625 154.81054688 C-183.33790855 156.4100992 -179.51301082 158.01260251 -175.68896484 159.6171875 C-167.81082318 162.92029343 -159.91785449 166.18749207 -152.02478027 169.45471191 C-147.77761239 171.21308829 -143.53138682 172.97373664 -139.28515625 174.734375 C-138.44121307 175.08425476 -137.5972699 175.43413452 -136.72775269 175.7946167 C-131.51160226 177.95743956 -126.29651124 180.12279779 -121.08213806 182.28990173 C-99.42668782 191.28981079 -77.74482669 200.21803359 -56 209 C-58.77714505 205.41467728 -61.71515602 202.16114779 -64.92279053 198.95695496 C-65.40398385 198.47490721 -65.88517718 197.99285946 -66.38095212 197.4962042 C-67.98305089 195.89246719 -69.588681 194.29231463 -71.19433594 192.69213867 C-72.34783552 191.53892135 -73.50111458 190.38548341 -74.65419006 189.23184204 C-77.77765162 186.10809401 -80.90418308 182.98743514 -84.03127956 179.8673265 C-87.3015545 176.60330997 -90.56899091 173.33645446 -93.83673096 170.06990051 C-100.0217641 163.88797335 -106.20934158 157.70859938 -112.39783978 151.53014117 C-119.444514 144.49465086 -126.48834319 137.4563151 -133.53193617 130.41774023 C-148.01812987 115.9419943 -162.50788833 101.4698211 -177 87 C-175.3413812 83.47655356 -173.43342692 81.20098122 -170.6484375 78.453125 C-169.79765625 77.60878906 -168.946875 76.76445313 -168.0703125 75.89453125 C-166.73613281 74.58548828 -166.73613281 74.58548828 -165.375 73.25 C-164.4778125 72.36183594 -163.580625 71.47367187 -162.65625 70.55859375 C-160.44192996 68.36783031 -158.22307565 66.18187237 -156 64 C-152.22451546 65.56879341 -149.83446706 67.91901732 -146.96331787 70.7961731 C-146.46987389 71.28790823 -145.97642991 71.77964336 -145.46803308 72.28627956 C-143.81732408 73.93369672 -142.1738608 75.58815575 -140.53027344 77.24267578 C-139.34786207 78.42565133 -138.16501006 79.60818658 -136.98175049 80.79031372 C-133.77098428 84.00050568 -130.56642554 87.21683052 -127.36293316 90.43427896 C-124.01394212 93.79576526 -120.65929345 97.15159559 -117.30523682 100.50802612 C-110.95481309 106.86466815 -104.6095052 113.22639164 -98.26601243 119.58994949 C-91.04388326 126.83442672 -83.81608006 134.07323155 -76.58779097 141.31156182 C-61.71886482 156.20139791 -46.85709058 171.09835497 -32 186 C-32.95824086 183.43577509 -33.91727111 180.87185007 -34.87675476 178.30809021 C-35.14640407 177.58626855 -35.41605338 176.8644469 -35.69387388 176.12075186 C-37.60716899 171.0109572 -39.59656657 165.9420277 -41.70703125 160.91015625 C-42.1905732 159.74721291 -42.1905732 159.74721291 -42.68388367 158.56077576 C-43.7242067 156.06027999 -44.76834793 153.56139893 -45.8125 151.0625 C-46.56019224 149.26705049 -47.30758123 147.47147467 -48.0546875 145.67578125 C-49.60121295 141.95931232 -51.14901806 138.24338036 -52.69775391 134.52783203 C-55.95941099 126.70002648 -59.20502764 118.86557899 -62.4510498 111.03128052 C-63.85261804 107.64907764 -65.25509424 104.2672516 -66.65756226 100.88542175 C-69.57894507 93.84092177 -72.49910898 86.79591853 -75.41751099 79.75018311 C-76.93447705 76.08797955 -78.45184418 72.42594223 -79.96923828 68.76391602 C-80.68118809 67.045411 -81.39294905 65.32682773 -82.10449219 63.6081543 C-82.7746087 61.98956767 -83.44500443 60.37109661 -84.11569214 58.75274658 C-84.76419882 57.18759968 -85.41193933 55.62213508 -86.05886841 54.05633545 C-87.76659319 49.93252848 -89.50201954 45.8226851 -91.27294922 41.72558594 C-91.64471786 40.86013153 -92.01648651 39.99467712 -92.39952087 39.10299683 C-93.11345707 37.44389116 -93.83319027 35.78726415 -94.55958557 34.13357544 C-94.87950974 33.38808441 -95.1994339 32.64259338 -95.52905273 31.87451172 C-95.81368881 31.22118866 -96.09832489 30.5678656 -96.3915863 29.89474487 C-97 28 -97 28 -97 24 C-88.09 20.37 -79.18 16.74 -70 13 C-66.66938536 16.33061464 -65.30573632 19.54822522 -63.5859375 23.8203125 C-63.25933136 24.61400238 -62.93272522 25.40769226 -62.59622192 26.22543335 C-61.5155634 28.85584469 -60.44541475 31.4904054 -59.375 34.125 C-58.61472745 35.98014378 -57.85364674 37.83495654 -57.09179688 39.68945312 C-55.50824923 43.54592165 -53.9282047 47.40379779 -52.35058594 51.26269531 C-49.11110624 59.17916758 -45.82960486 67.07812531 -42.54785156 74.97714233 C-40.78252401 79.22742959 -39.02030522 83.47900537 -37.2578125 87.73046875 C-36.90752991 88.57525284 -36.55724731 89.42003693 -36.1963501 90.29042053 C-34.0512479 95.46382077 -31.90687451 100.63752257 -29.76300049 105.81143188 C-28.3139373 109.30844287 -26.86461692 112.80534723 -25.4152832 116.30224609 C-24.75125827 117.90457052 -24.08734688 119.50694201 -23.42358398 121.109375 C-15.97765892 139.08487123 -8.48334547 157.03997088 -1 175 C-0.67 117.25 -0.34 59.5 0 0 Z M0 241 C0 250.9 0 260.8 0 271 C9.9 271 19.8 271 30 271 C30 261.1 30 251.2 30 241 C20.1 241 10.2 241 0 241 Z " fill="#B3B3B3" transform="translate(241,0)"/>
</svg>
